SplineFontDB: 3.0
FontName: Monda-Bold-Italic
FullName: Monda Bold-Italic
FamilyName: Monda
Weight: Normal
ItalicAngle: 0
UnderlinePosition: 0
UnderlineWidth: 0
Ascent: 1638
Descent: 410
UFOAscent: 1476
UFODescent: -695
LayerCount: 2
Layer: 0 0 "Back"  1
Layer: 1 0 "Fore"  0
OS2Version: 0
OS2_WeightWidthSlopeOnly: 0
OS2_UseTypoMetrics: 0
CreationTime: 1391963337
ModificationTime: 1391963570
PfmFamily: 0
TTFWeight: 400
TTFWidth: 5
LineGap: 0
VLineGap: 0
OS2TypoAscent: 0
OS2TypoAOffset: 1
OS2TypoDescent: 0
OS2TypoDOffset: 1
OS2TypoLinegap: 0
OS2WinAscent: 0
OS2WinAOffset: 1
OS2WinDescent: 0
OS2WinDOffset: 1
HheadAscent: 0
HheadAOffset: 1
HheadDescent: 0
HheadDOffset: 1
OS2Vendor: 'PfEd'
Lookup: 6 0 0 "'locl' Localized Forms in Latin lookup 0"  {"'locl' Localized Forms in Latin lookup 0 contextual 0"  "'locl' Localized Forms in Latin lookup 0 contextual 1"  } ['locl' ('latn' <'CAT ' 'dflt' > ) ]
Lookup: 4 0 0 "Ligature Substitution lookup 1"  {"Ligature Substitution lookup 1 subtable"  } []
Lookup: 4 0 0 "Ligature Substitution lookup 2"  {"Ligature Substitution lookup 2 subtable"  } []
Lookup: 1 0 0 "'locl' Localized Forms in Latin lookup 3"  {"'locl' Localized Forms in Latin lookup 3 subtable"  } ['locl' ('latn' <'ROM ' 'dflt' > ) ]
Lookup: 1 0 0 "'locl' Localized Forms in Latin lookup 4"  {"'locl' Localized Forms in Latin lookup 4 subtable"  } ['locl' ('latn' <'MOL ' 'dflt' > ) ]
Lookup: 1 0 0 "'locl' Localized Forms in Latin lookup 5"  {"'locl' Localized Forms in Latin lookup 5 subtable"  } ['locl' ('latn' <'KAZ ' 'dflt' > ) ]
Lookup: 1 0 0 "'locl' Localized Forms in Latin lookup 6"  {"'locl' Localized Forms in Latin lookup 6 subtable"  } ['locl' ('latn' <'TAT ' 'dflt' > ) ]
Lookup: 1 0 0 "'locl' Localized Forms in Latin lookup 7"  {"'locl' Localized Forms in Latin lookup 7 subtable"  } ['locl' ('latn' <'TRK ' 'dflt' > ) ]

StartChar: A
Encoding: 34 65 0
Width: 1540
VWidth: 0
Flags: W
PickledData: "(dp1
S'org.robofab.postScriptHintData'
p2
(dp3
s."
AnchorPoint: "ogonek" 1171 0 basechar 0
AnchorPoint: "top" 898 1476 basechar 0
LayerCount: 2
Fore
SplineSet
-33 0 m 257
 274 0 l 257
 405 281 l 257
 989 281 l 257
 1027 0 l 257
 1339 0 l 257
 1081 1476 l 257
 687 1476 l 257
 -33 0 l 257
495 479 m 257
 854 1245 l 257
 963 479 l 257
 495 479 l 257
EndSplineSet
Substitution2: "Single Substitution lookup 13 subtable" ordfeminine
EndChar

StartChar: AE
Encoding: 135 198 1
Width: 1834
VWidth: 0
Flags: W
PickledData: "(dp1
S'org.robofab.postScriptHintData'
p2
(dp3
s."
AnchorPoint: "top" 1213 1476 basechar 0
LayerCount: 2
Fore
SplineSet
-34 0 m 257
 276 0 l 257
 400 281 l 257
 821 281 l 257
 776 0 l 257
 1593 0 l 257
 1629 227 l 257
 1092 227 l 257
 1158 645 l 257
 1615 645 l 257
 1649 858 l 257
 1192 858 l 257
 1254 1249 l 257
 1781 1249 l 257
 1817 1477 l 257
 656 1477 l 257
 -34 0 l 257
486 477 m 257
 838 1249 l 257
 974 1249 l 257
 852 477 l 257
 486 477 l 257
EndSplineSet
EndChar

StartChar: B
Encoding: 35 66 17
Width: 1492
VWidth: 0
Flags: W
PickledData: "(dp1
S'org.robofab.postScriptHintData'
p2
(dp3
s."
AnchorPoint: "top" 866 1476 basechar 0
LayerCount: 2
Fore
SplineSet
95 0 m 257
 735 0 l 258
 1101 0 1278 139 1320 448 c 257
 1351 641 1325 776 1124 804 c 257
 1285 843 1334 938 1358 1088 c 256
 1400 1353 1310 1476 897 1476 c 258
 329 1476 l 257
 95 0 l 257
425 208 m 257
 503 703 l 257
 821 703 l 258
 1043 703 1048 602 1025 455 c 256
 993 250 944 208 713 208 c 258
 425 208 l 257
532 882 m 257
 594 1273 l 257
 846 1273 l 258
 1047 1273 1080 1240 1055 1085 c 256
 1034 952 1012 882 839 882 c 258
 532 882 l 257
EndSplineSet
EndChar

StartChar: C
Encoding: 36 67 19
Width: 1509
VWidth: 0
Flags: W
PickledData: "(dp1
S'org.robofab.postScriptHintData'
p2
(dp3
s."
AnchorPoint: "bot" 648 0 basechar 0
AnchorPoint: "top" 905 1476 basechar 0
LayerCount: 2
Fore
SplineSet
667 -26 m 256
 1179 -26 1283 190 1329 480 c 258
 1333 507 l 257
 1042 507 l 257
 1035 460 l 258
 1002 250 930 207 705 207 c 256
 483 207 388 252 420 454 c 258
 508 1012 l 258
 541 1215 652 1268 872 1268 c 256
 1097 1268 1154 1213 1122 1006 c 258
 1110 931 l 257
 1406 965 l 257
 1409 983 l 258
 1456 1281 1413 1501 909 1501 c 256
 380 1501 253 1275 206 977 c 258
 128 484 l 258
 82 193 141 -26 667 -26 c 256
EndSplineSet
EndChar

StartChar: D
Encoding: 37 68 26
Width: 1564
VWidth: 0
Flags: W
PickledData: "(dp1
S'org.robofab.postScriptHintData'
p2
(dp3
s."
AnchorPoint: "mid" 382 781 basechar 0
AnchorPoint: "top" 896 1476 basechar 0
LayerCount: 2
Fore
SplineSet
429 231 m 257
 589 1245 l 257
 907 1245 l 258
 1113 1245 1166 1160 1140 1000 c 258
 1057 470 l 258
 1031 306 956 231 747 231 c 258
 429 231 l 257
95 0 m 257
 736 0 l 258
 1151 0 1313 213 1360 508 c 258
 1431 961 l 258
 1477 1250 1397 1476 969 1476 c 258
 329 1476 l 257
 95 0 l 257
EndSplineSet
EndChar

StartChar: uni0394
Encoding: 418 916 30
Width: 1419
VWidth: 0
Flags: W
PickledData: "(dp1
S'org.robofab.postScriptHintData'
p2
(dp3
s."
LayerCount: 2
Fore
SplineSet
-9 0 m 257
 1192 0 l 257
 948 1476 l 257
 731 1476 l 257
 -9 0 l 257
293 198 m 257
 752 1141 l 257
 879 198 l 257
 293 198 l 257
EndSplineSet
EndChar

StartChar: E
Encoding: 38 69 33
Width: 1316
VWidth: 0
Flags: W
PickledData: "(dp1
S'org.robofab.postScriptHintData'
p2
(dp3
s."
AnchorPoint: "bot" 610 0 basechar 0
AnchorPoint: "ogonek" 775 0 basechar 0
AnchorPoint: "top" 860 1476 basechar 0
LayerCount: 2
Fore
SplineSet
95 0 m 257
 1073 0 l 257
 1109 224 l 257
 427 224 l 257
 493 646 l 257
 1088 646 l 257
 1122 860 l 257
 527 860 l 257
 589 1252 l 257
 1260 1252 l 257
 1296 1476 l 257
 329 1476 l 257
 95 0 l 257
EndSplineSet
EndChar

StartChar: Eng
Encoding: 267 330 44
Width: 1640
VWidth: 0
Flags: W
PickledData: "(dp1
S'org.robofab.postScriptHintData'
p2
(dp3
s."
LayerCount: 2
Fore
SplineSet
754 -382 m 257
 1196 -382 1329 -219 1389 162 c 258
 1597 1477 l 257
 1330 1477 l 257
 1185 560 l 257
 562 1477 l 257
 337 1477 l 257
 103 0 l 257
 371 0 l 257
 529 996 l 257
 1115 153 l 257
 1109 117 l 258
 1065 -159 992 -171 756 -192 c 257
 754 -382 l 257
EndSplineSet
EndChar

StartChar: Euro
Encoding: 467 8364 48
Width: 1490
VWidth: 0
Flags: W
PickledData: "(dp1
S'org.robofab.postScriptHintData'
p2
(dp3
s."
LayerCount: 2
Fore
SplineSet
804 838 m 257
 825 972 l 257
 83 972 l 257
 62 838 l 257
 804 838 l 257
756 536 m 257
 777 670 l 257
 35 670 l 257
 14 536 l 257
 756 536 l 257
EndSplineSet
Refer: 19 67 N 1 0 0 1 0 0 2
EndChar

StartChar: F
Encoding: 39 70 49
Width: 1195
VWidth: 0
Flags: W
PickledData: "(dp1
S'org.robofab.postScriptHintData'
p2
(dp3
s."
AnchorPoint: "top" 815 1476 basechar 0
LayerCount: 2
Fore
SplineSet
95 0 m 257
 392 0 l 257
 493 634 l 257
 1048 634 l 257
 1081 847 l 257
 526 847 l 257
 590 1249 l 257
 1186 1249 l 257
 1222 1476 l 257
 329 1476 l 257
 95 0 l 257
EndSplineSet
EndChar

StartChar: G
Encoding: 40 71 51
Width: 1623
VWidth: 0
Flags: W
PickledData: "(dp1
S'org.robofab.postScriptHintData'
p2
(dp3
s."
AnchorPoint: "bot" 651 0 basechar 0
AnchorPoint: "top" 940 1476 basechar 0
LayerCount: 2
Fore
SplineSet
700 -26 m 256
 1019 -26 1111 123 1133 170 c 257
 1153 0 l 257
 1310 0 l 257
 1430 757 l 257
 864 757 l 257
 833 562 l 257
 1131 562 l 257
 1114 454 l 258
 1082 252 962 207 737 207 c 256
 515 207 389 252 421 454 c 258
 509 1012 l 258
 542 1215 685 1268 905 1268 c 256
 1127 1268 1210 1219 1179 1021 c 258
 1170 962 l 257
 1465 984 l 257
 1469 1007 l 257
 1514 1290 1454 1501 942 1501 c 256
 413 1501 253 1275 206 977 c 258
 128 484 l 258
 82 193 174 -26 700 -26 c 256
EndSplineSet
EndChar

StartChar: H
Encoding: 41 72 58
Width: 1668
VWidth: 0
Flags: W
PickledData: "(dp1
S'org.robofab.postScriptHintData'
p2
(dp3
s."
AnchorPoint: "top" 964 1476 basechar 0
LayerCount: 2
Fore
SplineSet
95 0 m 257
 393 0 l 257
 491 615 l 257
 1139 615 l 257
 1041 0 l 257
 1339 0 l 257
 1573 1476 l 257
 1275 1476 l 257
 1175 848 l 257
 527 848 l 257
 627 1476 l 257
 329 1476 l 257
 95 0 l 257
EndSplineSet
EndChar

StartChar: Hbar
Encoding: 231 294 59
Width: 1624
VWidth: 0
Flags: W
PickledData: "(dp1
S'org.robofab.postScriptHintData'
p2
(dp3
s."
LayerCount: 2
Fore
SplineSet
146 1132 m 261
 1602 1132 l 261
 1619 1236 l 261
 163 1236 l 261
 146 1132 l 261
EndSplineSet
Refer: 58 72 N 1 0 0 1 0 0 2
EndChar

StartChar: I
Encoding: 42 73 61
Width: 1148
VWidth: 0
Flags: W
PickledData: "(dp1
S'org.robofab.postScriptHintData'
p2
(dp3
s."
AnchorPoint: "ogonek" 466 0 basechar 0
AnchorPoint: "top" 713 1476 basechar 0
LayerCount: 2
Fore
SplineSet
41 0 m 257
 873 0 l 257
 908 222 l 257
 641 222 l 257
 805 1255 l 257
 1072 1255 l 257
 1107 1476 l 257
 275 1476 l 257
 240 1255 l 257
 509 1255 l 257
 345 222 l 257
 76 222 l 257
 41 0 l 257
EndSplineSet
EndChar

StartChar: J
Encoding: 43 74 75
Width: 1222
VWidth: 0
Flags: W
PickledData: "(dp1
S'org.robofab.postScriptHintData'
p2
(dp3
s."
AnchorPoint: "top" 756 1476 basechar 0
LayerCount: 2
Fore
SplineSet
385 -25 m 256
 716 -25 943 138 988 422 c 258
 1155 1476 l 257
 350 1476 l 257
 314 1250 l 257
 822 1250 l 257
 694 441 l 258
 674 313 589 209 403 209 c 256
 299 209 159 242 70 287 c 257
 -34 67 l 257
 86 6 241 -25 385 -25 c 256
EndSplineSet
EndChar

StartChar: K
Encoding: 44 75 77
Width: 1470
VWidth: 0
Flags: W
PickledData: "(dp1
S'org.robofab.postScriptHintData'
p2
(dp3
s."
AnchorPoint: "bot" 665 0 basechar 0
AnchorPoint: "top" 873 1476 basechar 0
LayerCount: 2
Fore
SplineSet
95 0 m 257
 392 0 l 257
 478 541 l 257
 639 679 l 257
 996 0 l 257
 1331 0 l 257
 904 804 l 257
 1528 1476 l 257
 1200 1476 l 257
 512 760 l 257
 626 1476 l 257
 329 1476 l 257
 95 0 l 257
EndSplineSet
EndChar

StartChar: L
Encoding: 45 76 80
Width: 1194
VWidth: 0
Flags: W
PickledData: "(dp1
S'org.robofab.postScriptHintData'
p2
(dp3
s."
AnchorPoint: "mid" 437 811 basechar 0
AnchorPoint: "bot" 540 0 basechar 0
AnchorPoint: "top" 561 1476 basechar 0
LayerCount: 2
Fore
SplineSet
95 0 m 257
 1009 0 l 257
 1046 232 l 257
 429 232 l 257
 626 1476 l 257
 329 1476 l 257
 95 0 l 257
EndSplineSet
EndChar

StartChar: Lslash
Encoding: 258 321 86
Width: 1172
VWidth: 0
Flags: W
PickledData: "(dp1
S'org.robofab.postScriptHintData'
p2
(dp3
s."
LayerCount: 2
Fore
SplineSet
-4 560 m 257
 814 871 l 257
 849 1094 l 257
 31 783 l 257
 -4 560 l 257
EndSplineSet
Refer: 80 76 N 1 0 0 1 0 0 2
EndChar

StartChar: M
Encoding: 46 77 87
Width: 1918
VWidth: 0
Flags: W
PickledData: "(dp1
S'org.robofab.postScriptHintData'
p2
(dp3
s."
AnchorPoint: "top" 1101 1476 basechar 0
LayerCount: 2
Fore
SplineSet
95 0 m 257
 373 0 l 257
 545 1087 l 257
 811 429 l 257
 1010 429 l 257
 1484 1091 l 257
 1311 0 l 257
 1589 0 l 257
 1823 1476 l 257
 1490 1476 l 257
 963 761 l 257
 656 1476 l 257
 329 1476 l 257
 95 0 l 257
EndSplineSet
EndChar

StartChar: N
Encoding: 47 78 89
Width: 1678
VWidth: 0
Flags: W
PickledData: "(dp1
S'org.robofab.postScriptHintData'
p2
(dp3
s."
AnchorPoint: "bot" 785 0 basechar 0
AnchorPoint: "top" 981 1476 basechar 0
LayerCount: 2
Fore
SplineSet
95 0 m 257
 362 0 l 257
 520 996 l 257
 1126 0 l 257
 1349 0 l 257
 1583 1476 l 257
 1319 1476 l 257
 1159 464 l 257
 552 1476 l 257
 329 1476 l 257
 95 0 l 257
EndSplineSet
EndChar

StartChar: O
Encoding: 48 79 96
Width: 1622
VWidth: 0
Flags: W
PickledData: "(dp1
S'org.robofab.postScriptHintData'
p2
(dp3
s."
AnchorPoint: "ogonek" 766 0 basechar 0
AnchorPoint: "top" 939 1476 basechar 0
LayerCount: 2
Fore
SplineSet
738 207 m 256
 516 207 391 265 423 468 c 258
 508 1003 l 258
 540 1205 686 1268 906 1268 c 256
 1128 1268 1229 1201 1198 1003 c 258
 1113 468 l 258
 1081 266 962 207 738 207 c 256
701 -26 m 256
 1209 -26 1373 227 1419 517 c 258
 1487 948 l 258
 1535 1247 1453 1501 943 1501 c 256
 410 1501 251 1262 204 963 c 258
 131 501 l 258
 84 209 170 -26 701 -26 c 256
EndSplineSet
Substitution2: "Single Substitution lookup 14 subtable" ordmasculine
EndChar

StartChar: OE
Encoding: 275 338 97
Width: 1633
VWidth: 0
Flags: W
PickledData: "(dp1
S'org.robofab.postScriptHintData'
p2
(dp3
s."
LayerCount: 2
Fore
SplineSet
600 0 m 258
 1390 0 l 257
 1420 190 l 257
 1069 190 l 257
 1144 665 l 257
 1410 665 l 257
 1441 858 l 257
 1175 858 l 257
 1243 1287 l 257
 1592 1287 l 257
 1622 1476 l 257
 834 1476 l 258
 381 1475 241 1247 195 958 c 258
 123 506 l 258
 77 211 149 0 600 0 c 258
627 191 m 258
 407 191 361 302 383 444 c 258
 475 1022 l 258
 498 1165 581 1279 799 1279 c 258
 972 1279 l 257
 799 191 l 257
 627 191 l 258
EndSplineSet
EndChar

StartChar: Omega
Encoding: 470 8486 105
Width: 1634
VWidth: 0
Flags: W
PickledData: "(dp1
S'org.robofab.postScriptHintData'
p2
(dp3
s."
LayerCount: 2
Fore
SplineSet
935 1489 m 256
 551 1489 253 1418 146 746 c 256
 101 458 209 296 336 206 c 257
 82 206 l 257
 49 0 l 257
 617 0 l 257
 647 192 l 257
 442 305 407 447 459 779 c 256
 531 1231 667 1271 900 1271 c 256
 1143 1271 1257 1231 1185 779 c 256
 1133 447 1052 305 811 192 c 257
 781 0 l 257
 1349 0 l 257
 1382 206 l 257
 1128 206 l 257
 1283 296 1443 458 1488 746 c 256
 1595 1418 1329 1489 935 1489 c 256
EndSplineSet
EndChar

StartChar: Oslash
Encoding: 153 216 111
Width: 1606
VWidth: 0
Flags: W
PickledData: "(dp1
S'org.robofab.postScriptHintData'
p2
(dp3
s."
LayerCount: 2
Fore
SplineSet
352 -217 m 257
 1375 1675 l 257
 1292 1698 l 257
 269 -194 l 257
 352 -217 l 257
EndSplineSet
Refer: 96 79 N 1 0 0 1 0 0 2
EndChar

StartChar: P
Encoding: 49 80 114
Width: 1408
VWidth: 0
Flags: W
PickledData: "(dp1
S'org.robofab.postScriptHintData'
p2
(dp3
s."
AnchorPoint: "top" 845 1476 basechar 0
LayerCount: 2
Fore
SplineSet
95 0 m 257
 392 0 l 257
 473 509 l 257
 726 509 l 258
 1112 509 1260 663 1314 1005 c 256
 1367 1337 1234 1476 908 1476 c 258
 329 1476 l 257
 95 0 l 257
507 726 m 257
 592 1265 l 257
 902 1265 l 258
 1042 1265 1058 1145 1034 990 c 256
 1006 813 957 726 807 726 c 258
 507 726 l 257
EndSplineSet
EndChar

StartChar: Q
Encoding: 50 81 116
Width: 1622
VWidth: 0
Flags: W
PickledData: "(dp1
S'org.robofab.postScriptHintData'
p2
(dp3
s."
LayerCount: 2
Fore
SplineSet
857 -534 m 257
 1063 -426 l 257
 882 -19 l 257
 1280 25 1418 256 1459 517 c 258
 1528 948 l 258
 1575 1247 1493 1501 983 1501 c 256
 450 1501 291 1262 244 963 c 258
 171 501 l 258
 128 234 197 14 616 -21 c 257
 857 -534 l 257
778 207 m 256
 556 207 431 265 464 468 c 258
 548 1003 l 258
 580 1205 726 1268 946 1268 c 256
 1168 1268 1270 1201 1238 1003 c 258
 1154 468 l 258
 1122 266 1002 207 778 207 c 256
EndSplineSet
EndChar

StartChar: R
Encoding: 51 82 117
Width: 1524
VWidth: 0
Flags: W
PickledData: "(dp1
S'org.robofab.postScriptHintData'
p2
(dp3
s."
AnchorPoint: "bot" 686 0 basechar 0
AnchorPoint: "top" 835 1476 basechar 0
LayerCount: 2
Fore
SplineSet
95 0 m 257
 392 0 l 257
 484 583 l 257
 818 583 l 257
 985 0 l 257
 1293 0 l 257
 1107 626 l 257
 1299 699 1360 853 1389 1035 c 256
 1431 1301 1358 1476 966 1476 c 258
 329 1476 l 257
 95 0 l 257
518 795 m 257
 592 1265 l 257
 969 1265 l 258
 1116 1265 1122 1142 1103 1022 c 256
 1083 896 1035 795 883 795 c 258
 518 795 l 257
EndSplineSet
EndChar

StartChar: S
Encoding: 52 83 123
Width: 1281
VWidth: 0
Flags: W
PickledData: "(dp1
S'org.robofab.postScriptHintData'
p2
(dp3
s."
AnchorPoint: "bot" 585 0 basechar 0
AnchorPoint: "top" 787 1476 basechar 0
LayerCount: 2
Fore
SplineSet
567 -26 m 256
 904 -26 1079 172 1119 422 c 256
 1156 654 1075 777 886 837 c 258
 647 912 l 258
 497 959 466 1008 489 1121 c 256
 511 1227 607 1268 759 1268 c 256
 903 1268 1027 1229 1129 1177 c 257
 1246 1386 l 257
 1122 1465 965 1501 770 1501 c 256
 479 1501 236 1369 192 1094 c 256
 163 905 203 752 433 681 c 258
 673 607 l 258
 857 550 861 482 842 390 c 256
 820 281 767 207 597 207 c 256
 414 207 260 265 157 325 c 257
 20 108 l 257
 155 25 366 -26 567 -26 c 256
EndSplineSet
EndChar

StartChar: Sigma
Encoding: 419 931 131
Width: 1196
VWidth: 0
Flags: W
PickledData: "(dp1
S'org.robofab.postScriptHintData'
p2
(dp3
s."
LayerCount: 2
Fore
SplineSet
973 0 m 257
 1009 226 l 257
 365 226 l 257
 872 734 l 257
 885 812 l 257
 530 1252 l 257
 1171 1252 l 257
 1207 1476 l 257
 209 1476 l 257
 180 1291 l 257
 577 761 l 257
 5 191 l 257
 -25 0 l 257
 973 0 l 257
EndSplineSet
EndChar

StartChar: T
Encoding: 53 84 132
Width: 1194
VWidth: 0
Flags: W
PickledData: "(dp1
S'org.robofab.postScriptHintData'
p2
(dp3
s."
AnchorPoint: "mid" 607 762 basechar 0
AnchorPoint: "bot" 458 0 basechar 0
AnchorPoint: "top" 718 1476 basechar 0
LayerCount: 2
Fore
SplineSet
332 0 m 257
 628 0 l 257
 826 1250 l 257
 1237 1250 l 257
 1273 1476 l 257
 155 1476 l 257
 119 1250 l 257
 530 1250 l 257
 332 0 l 257
EndSplineSet
EndChar

StartChar: Thorn
Encoding: 159 222 137
Width: 1362
VWidth: 0
Flags: W
PickledData: "(dp1
S'org.robofab.postScriptHintData'
p2
(dp3
s."
LayerCount: 2
Fore
SplineSet
99 0 m 257
 396 0 l 257
 452 356 l 257
 717 356 l 258
 1103 356 1229 469 1284 811 c 256
 1336 1143 1213 1240 886 1240 c 258
 593 1240 l 257
 630 1476 l 257
 333 1476 l 257
 99 0 l 257
486 567 m 257
 560 1033 l 257
 881 1033 l 258
 1021 1033 1038 951 1013 797 c 256
 985 619 948 567 798 567 c 258
 486 567 l 257
EndSplineSet
EndChar

StartChar: U
Encoding: 54 85 138
Width: 1606
VWidth: 0
Flags: W
PickledData: "(dp1
S'org.robofab.postScriptHintData'
p2
(dp3
s."
AnchorPoint: "ogonek" 774 0 basechar 0
AnchorPoint: "top" 944 1476 basechar 0
LayerCount: 2
Fore
SplineSet
693 -26 m 256
 1191 -26 1331 199 1375 480 c 258
 1533 1477 l 257
 1236 1477 l 257
 1074 455 l 258
 1044 263 938 207 730 207 c 256
 525 207 415 260 446 455 c 258
 608 1477 l 257
 311 1477 l 257
 151 468 l 258
 107 186 188 -26 693 -26 c 256
EndSplineSet
EndChar

StartChar: V
Encoding: 55 86 152
Width: 1484
VWidth: 0
Flags: W
PickledData: "(dp1
S'org.robofab.postScriptHintData'
p2
(dp3
s."
LayerCount: 2
Fore
SplineSet
447 0 m 257
 807 0 l 257
 1561 1476 l 257
 1246 1476 l 257
 677 287 l 257
 471 1476 l 257
 157 1476 l 257
 447 0 l 257
EndSplineSet
EndChar

StartChar: W
Encoding: 56 87 153
Width: 2014
VWidth: 0
Flags: W
PickledData: "(dp1
S'org.robofab.postScriptHintData'
p2
(dp3
s."
AnchorPoint: "top" 1113 1476 basechar 0
LayerCount: 2
Fore
SplineSet
330 0 m 257
 596 0 l 257
 1053 1053 l 257
 1202 0 l 257
 1451 0 l 257
 2061 1476 l 257
 1779 1476 l 257
 1391 466 l 257
 1238 1476 l 257
 989 1476 l 257
 555 455 l 257
 468 1476 l 257
 187 1476 l 257
 330 0 l 257
EndSplineSet
EndChar

StartChar: X
Encoding: 57 88 158
Width: 1352
VWidth: 0
Flags: W
PickledData: "(dp1
S'org.robofab.postScriptHintData'
p2
(dp3
s."
LayerCount: 2
Fore
SplineSet
-79 0 m 257
 231 0 l 257
 631 501 l 257
 870 0 l 257
 1197 0 l 257
 832 749 l 257
 1414 1476 l 257
 1086 1476 l 257
 710 997 l 257
 476 1476 l 257
 167 1476 l 257
 515 748 l 257
 -79 0 l 257
EndSplineSet
EndChar

StartChar: Y
Encoding: 58 89 159
Width: 1340
VWidth: 0
Flags: W
PickledData: "(dp1
S'org.robofab.postScriptHintData'
p2
(dp3
s."
AnchorPoint: "top" 811 1476 basechar 0
LayerCount: 2
Fore
SplineSet
410 0 m 257
 706 0 l 257
 796 567 l 257
 1439 1476 l 257
 1139 1476 l 257
 696 859 l 257
 448 1476 l 257
 135 1476 l 257
 500 567 l 257
 410 0 l 257
EndSplineSet
EndChar

StartChar: Z
Encoding: 59 90 166
Width: 1222
VWidth: 0
Flags: W
PickledData: "(dp1
S'org.robofab.postScriptHintData'
p2
(dp3
s."
AnchorPoint: "top" 811 1476 basechar 0
LayerCount: 2
Fore
SplineSet
5 0 m 257
 1023 0 l 257
 1056 210 l 257
 384 210 l 257
 1217 1297 l 257
 1245 1476 l 257
 264 1476 l 257
 229 1258 l 257
 866 1258 l 257
 33 177 l 257
 5 0 l 257
EndSplineSet
EndChar

StartChar: a
Encoding: 66 97 170
Width: 1174
VWidth: 0
Flags: W
PickledData: "(dp1
S'org.robofab.postScriptHintData'
p2
(dp3
sS'com.typemytype.robofont.layerData'
p4
(dp5
s."
AnchorPoint: "ogonek" 922 0 basechar 0
AnchorPoint: "top" 679 1074 basechar 0
LayerCount: 2
Fore
SplineSet
335 -23 m 256
 492 -23 613 35 693 130 c 257
 711 43 768 -8 927 -8 c 258
 1019 -8 l 257
 1061 190 l 257
 963 190 952 210 967 308 c 258
 1034 733 l 258
 1070 955 982 1097 661 1097 c 256
 367 1097 212 963 179 755 c 258
 174 723 l 257
 429 723 l 257
 435 765 l 258
 449 848 489 907 625 907 c 256
 747 907 789 876 775 790 c 256
 762 707 730 693 672 673 c 258
 462 602 l 258
 196 512 93 415 71 278 c 256
 42 94 147 -23 335 -23 c 256
434 161 m 256
 370 161 325 190 332 278 c 256
 338 347 386 405 506 449 c 258
 734 533 l 257
 696 289 l 257
 630 207 498 161 434 161 c 256
EndSplineSet
Substitution2: "Single Substitution lookup 13 subtable" ordfeminine
EndChar

StartChar: acute
Encoding: 117 180 175
Width: 554
VWidth: 0
Flags: W
PickledData: "(dp1
S'org.robofab.postScriptHintData'
p2
(dp3
s."
AnchorPoint: "top" 115 1074 mark 0
LayerCount: 2
Fore
SplineSet
77 1218 m 257
 226 1218 l 257
 517 1583 l 257
 249 1583 l 257
 77 1218 l 257
EndSplineSet
EndChar

StartChar: ae
Encoding: 167 230 179
Width: 1734
VWidth: 0
Flags: W
PickledData: "(dp1
S'org.robofab.postScriptHintData'
p2
(dp3
s."
AnchorPoint: "top" 975 1074 basechar 0
LayerCount: 2
Fore
SplineSet
331 -23 m 256
 532 -23 654 31 783 130 c 257
 821 29 928 -23 1097 -23 c 256
 1387 -23 1537 41 1593 353 c 257
 1341 353 l 257
 1310 184 1254 166 1131 166 c 256
 1018 166 959 203 978 321 c 258
 1008 514 l 257
 1620 514 l 257
 1657 745 l 258
 1691 961 1602 1097 1276 1097 c 256
 1145 1097 1032 1055 946 967 c 257
 913 1056 796 1097 662 1097 c 256
 367 1097 210 953 177 745 c 258
 173 719 l 257
 429 719 l 257
 435 755 l 258
 448 838 489 908 626 908 c 256
 754 908 789 852 776 770 c 256
 754 631 673 640 456 586 c 256
 136 508 88 420 69 268 c 256
 46 90 147 -23 331 -23 c 256
455 157 m 256
 365 157 323 206 334 290 c 256
 343 351 377 418 513 447 c 256
 615 470 708 499 736 520 c 257
 695 259 l 257
 633 183 521 157 455 157 c 256
1031 655 m 257
 1047 760 l 258
 1065 874 1143 907 1252 907 c 256
 1361 907 1426 884 1407 765 c 258
 1390 655 l 257
 1031 655 l 257
EndSplineSet
EndChar

StartChar: ampersand
Encoding: 7 38 185
Width: 1526
VWidth: 0
Flags: W
PickledData: "(dp1
S'org.robofab.postScriptHintData'
p2
(dp3
s."
LayerCount: 2
Fore
SplineSet
613 -27 m 256
 866 -27 997 17 1085 103 c 257
 1193 -23 l 257
 1381 150 l 257
 1237 309 l 257
 1264 367 1287 462 1301 549 c 258
 1344 822 l 257
 1109 822 l 257
 1063 531 l 258
 1060 515 1060 514 1057 500 c 257
 671 951 l 257
 596 1046 574 1071 586 1149 c 256
 601 1244 646 1305 849 1305 c 256
 1037 1305 1087 1290 1065 1152 c 258
 1059 1110 l 257
 1297 1110 l 257
 1310 1193 l 258
 1347 1429 1222 1506 872 1506 c 256
 511 1506 361 1395 324 1165 c 256
 300 1011 356 922 446 825 c 257
 241 767 136 661 104 460 c 256
 48 108 170 -27 613 -27 c 256
648 195 m 256
 392 195 344 260 377 466 c 256
 396 588 412 668 553 704 c 257
 920 279 l 257
 871 198 757 195 648 195 c 256
EndSplineSet
EndChar

StartChar: approxequal
Encoding: 483 8776 187
Width: 1024
VWidth: 0
Flags: W
PickledData: "(dp1
S'org.robofab.postScriptHintData'
p2
(dp3
s."
LayerCount: 2
Fore
SplineSet
666 738 m 256
 801 738 925 839 955 1027 c 257
 846 1027 l 257
 834 956 793 905 703 905 c 256
 623 905 448 1043 295 1043 c 256
 160 1043 37 943 7 754 c 257
 115 754 l 257
 127 825 168 877 259 877 c 256
 338 877 512 738 666 738 c 256
728 1131 m 256
 863 1131 987 1232 1017 1420 c 257
 908 1420 l 257
 896 1349 855 1298 765 1298 c 256
 685 1298 510 1436 357 1436 c 256
 222 1436 99 1336 69 1147 c 257
 177 1147 l 257
 189 1218 230 1270 321 1270 c 256
 400 1270 574 1131 728 1131 c 256
EndSplineSet
EndChar

StartChar: asciicircum
Encoding: 63 94 189
Width: 1257
VWidth: 0
Flags: W
PickledData: "(dp1
S'org.robofab.postScriptHintData'
p2
(dp3
s."
LayerCount: 2
Fore
SplineSet
19 511 m 257
 256 511 l 257
 656 1112 l 257
 865 511 l 257
 1092 511 l 257
 806 1283 l 257
 547 1283 l 257
 19 511 l 257
EndSplineSet
EndChar

StartChar: asciitilde
Encoding: 95 126 190
Width: 1024
VWidth: 0
Flags: W
PickledData: "(dp1
S'org.robofab.postScriptHintData'
p2
(dp3
s."
LayerCount: 2
Fore
SplineSet
664 1131 m 256
 799 1131 928 1262 958 1450 c 257
 849 1450 l 257
 838 1379 792 1298 702 1298 c 256
 622 1298 512 1466 359 1466 c 256
 224 1466 96 1336 66 1147 c 257
 174 1147 l 257
 185 1218 231 1300 322 1300 c 256
 401 1300 510 1131 664 1131 c 256
EndSplineSet
EndChar

StartChar: asterisk
Encoding: 11 42 191
Width: 998
VWidth: 0
Flags: W
PickledData: "(dp1
S'org.robofab.postScriptHintData'
p2
(dp3
s."
LayerCount: 2
Fore
SplineSet
343 599 m 257
 521 599 l 257
 541 912 l 257
 758 722 l 257
 878 875 l 257
 620 1017 l 257
 930 1134 l 257
 874 1295 l 257
 574 1121 l 257
 655 1446 l 257
 477 1446 l 257
 456 1133 l 257
 239 1323 l 257
 119 1170 l 257
 377 1028 l 257
 68 911 l 257
 123 750 l 257
 423 924 l 257
 343 599 l 257
EndSplineSet
EndChar

StartChar: at
Encoding: 33 64 192
Width: 2048
VWidth: 0
Flags: W
PickledData: "(dp1
S'org.robofab.postScriptHintData'
p2
(dp3
s."
LayerCount: 2
Fore
SplineSet
926 -477 m 256
 1170 -477 1432 -423 1623 -375 c 257
 1597 -172 l 257
 1430 -206 1200 -256 986 -256 c 256
 642 -256 392 -125 470 363 c 258
 530 741 l 258
 610 1246 813 1320 1186 1320 c 256
 1557 1320 1596 1186 1550 895 c 257
 1550 895 1228 819 1186 809 c 256
 807 713 739 583 714 428 c 256
 675 185 841 53 1062 53 c 256
 1220 53 1388 119 1466 208 c 257
 1490 127 1514 59 1669 59 c 258
 1775 59 l 257
 1826 259 l 257
 1730 259 1725 295 1741 394 c 258
 1813 863 l 258
 1885 1318 1752 1523 1172 1523 c 256
 617 1523 357 1260 279 770 c 258
 212 348 l 258
 114 -272 439 -477 926 -477 c 256
1145 267 m 256
 1037 267 951 311 970 438 c 256
 985 549 1038 616 1232 666 c 256
 1281 678 1522 741 1527 744 c 257
 1469 377 l 257
 1451 325 1267 267 1145 267 c 256
EndSplineSet
EndChar

StartChar: b
Encoding: 67 98 194
Width: 1232
VWidth: 0
Flags: W
PickledData: "(dp1
S'org.robofab.postScriptHintData'
p2
(dp3
s."
AnchorPoint: "top" 754 1074 basechar 0
LayerCount: 2
Fore
SplineSet
543 -23 m 256
 804 -23 993 120 1026 329 c 258
 1093 753 l 258
 1122 934 1040 1097 738 1097 c 256
 648 1097 559 1074 488 1040 c 257
 564 1516 l 257
 292 1516 l 257
 52 0 l 257
 239 0 l 257
 276 65 l 257
 338 19 426 -23 543 -23 c 256
528 168 m 256
 455 168 394 185 358 216 c 257
 460 857 l 257
 482 867 560 907 658 907 c 256
 779 907 839 865 822 758 c 258
 753 323 l 258
 736 215 645 168 528 168 c 256
EndSplineSet
EndChar

StartChar: backslash
Encoding: 61 92 195
Width: 1024
VWidth: 0
Flags: W
PickledData: "(dp1
S'org.robofab.postScriptHintData'
p2
(dp3
s."
LayerCount: 2
Fore
SplineSet
555 0 m 257
 798 0 l 257
 469 1516 l 257
 226 1516 l 257
 555 0 l 257
EndSplineSet
EndChar

StartChar: bar
Encoding: 93 124 196
Width: 768
VWidth: 0
Flags: W
PickledData: "(dp1
S'org.robofab.postScriptHintData'
p2
(dp3
s."
LayerCount: 2
Fore
SplineSet
125 -126 m 257
 369 -126 l 257
 643 1608 l 257
 399 1608 l 257
 125 -126 l 257
EndSplineSet
EndChar

StartChar: braceleft
Encoding: 92 123 198
Width: 992
VWidth: 0
Flags: W
PickledData: "(dp1
S'org.robofab.postScriptHintData'
p2
(dp3
s."
LayerCount: 2
Fore
SplineSet
713 -128 m 257
 713 -128 741 46 740 46 c 256
 567 46 562 101 586 252 c 258
 604 369 l 258
 636 569 611 680 499 722 c 257
 618 758 687 896 716 1080 c 258
 737 1210 l 258
 759 1349 777 1382 952 1382 c 256
 953 1382 979 1556 979 1556 c 257
 622 1556 506 1515 446 1139 c 258
 430 1036 l 258
 404 873 354 833 207 833 c 257
 169 595 l 257
 315 595 357 572 331 409 c 258
 317 322 l 258
 264 -11 338 -128 713 -128 c 257
EndSplineSet
EndChar

StartChar: braceright
Encoding: 94 125 199
Width: 991
VWidth: 0
Flags: W
PickledData: "(dp1
S'org.robofab.postScriptHintData'
p2
(dp3
s."
LayerCount: 2
Fore
SplineSet
44 -128 m 257
 419 -128 529 -11 582 322 c 258
 596 409 l 258
 622 572 670 595 816 595 c 257
 854 833 l 257
 707 833 669 873 695 1036 c 258
 711 1139 l 258
 771 1515 667 1556 310 1556 c 257
 310 1556 282 1382 283 1382 c 256
 458 1382 466 1349 444 1210 c 258
 423 1080 l 258
 394 896 419 758 526 722 c 257
 402 680 341 569 309 369 c 258
 291 252 l 258
 267 101 244 46 71 46 c 256
 70 46 44 -128 44 -128 c 257
EndSplineSet
EndChar

StartChar: bracketleft
Encoding: 60 91 200
Width: 842
VWidth: 0
Flags: W
PickledData: "(dp1
S'org.robofab.postScriptHintData'
p2
(dp3
s."
LayerCount: 2
Fore
SplineSet
79 -89 m 257
 561 -89 l 257
 586 72 l 257
 377 72 l 257
 593 1431 l 257
 802 1431 l 257
 827 1592 l 257
 345 1592 l 257
 79 -89 l 257
EndSplineSet
EndChar

StartChar: bracketright
Encoding: 62 93 201
Width: 842
VWidth: 0
Flags: W
PickledData: "(dp1
S'org.robofab.postScriptHintData'
p2
(dp3
s."
LayerCount: 2
Fore
SplineSet
13 -89 m 257
 495 -89 l 257
 761 1592 l 257
 279 1592 l 257
 254 1431 l 257
 464 1431 l 257
 248 72 l 257
 38 72 l 257
 13 -89 l 257
EndSplineSet
EndChar

StartChar: breve
Encoding: 406 728 202
Width: 512
VWidth: 0
Flags: W
PickledData: "(dp1
S'org.robofab.postScriptHintData'
p2
(dp3
s."
AnchorPoint: "top" 224 1074 mark 0
LayerCount: 2
Fore
SplineSet
235 1217 m 256
 363 1217 501 1276 533 1476 c 257
 389 1476 l 257
 376 1400 317 1376 261 1376 c 256
 205 1376 152 1400 165 1476 c 257
 21 1476 l 257
 -11 1276 107 1217 235 1217 c 256
EndSplineSet
EndChar

StartChar: brokenbar
Encoding: 103 166 203
Width: 769
VWidth: 0
Flags: W
PickledData: "(dp1
S'org.robofab.postScriptHintData'
p2
(dp3
s."
LayerCount: 2
Fore
SplineSet
154 -120 m 257
 363 -120 l 257
 475 590 l 257
 266 590 l 257
 154 -120 l 257
299 800 m 257
 508 800 l 257
 615 1476 l 257
 406 1476 l 257
 299 800 l 257
EndSplineSet
EndChar

StartChar: bullet
Encoding: 460 8226 204
Width: 1024
VWidth: 0
Flags: W
PickledData: "(dp1
S'org.robofab.postScriptHintData'
p2
(dp3
s."
LayerCount: 2
Fore
SplineSet
461 390 m 256
 654 390 803 524 832 707 c 256
 861 891 754 1025 562 1025 c 256
 369 1025 221 891 192 707 c 256
 163 523 269 390 461 390 c 256
EndSplineSet
EndChar

StartChar: uni2219
Encoding: 479 8729 205
Width: 459
VWidth: 0
Flags: W
PickledData: "(dp1
S'org.robofab.postScriptHintData'
p2
(dp3
s."
LayerCount: 2
Fore
SplineSet
97 1251 m 257
 345 1251 l 257
 385 1498 l 257
 137 1498 l 257
 97 1251 l 257
EndSplineSet
EndChar

StartChar: c
Encoding: 68 99 206
Width: 1158
VWidth: 0
Flags: W
PickledData: "(dp1
S'org.robofab.postScriptHintData'
p2
(dp3
s."
AnchorPoint: "bot" 506 0 basechar 0
AnchorPoint: "top" 697 1074 basechar 0
LayerCount: 2
Fore
SplineSet
500 -23 m 256
 845 -23 948 77 1002 380 c 257
 748 380 l 257
 719 197 682 168 537 168 c 256
 413 168 360 207 378 322 c 258
 447 756 l 258
 464 867 538 907 654 907 c 256
 797 907 824 874 794 679 c 257
 1054 699 l 257
 1102 1007 966 1097 674 1097 c 256
 393 1097 209 972 175 757 c 258
 107 327 l 258
 77 140 133 -23 500 -23 c 256
EndSplineSet
EndChar

StartChar: caron
Encoding: 404 711 208
Width: 512
VWidth: 0
Flags: W
PickledData: "(dp1
S'org.robofab.postScriptHintData'
p2
(dp3
s."
AnchorPoint: "top" 221 1074 mark 0
LayerCount: 2
Fore
SplineSet
356 1216 m 257
 614 1514 l 257
 389 1514 l 257
 268 1371 l 257
 185 1514 l 257
 -45 1514 l 257
 131 1216 l 257
 356 1216 l 257
EndSplineSet
EndChar

StartChar: caron.alt
Encoding: 495 -1 209
Width: 600
VWidth: 0
Flags: W
PickledData: "(dp1
S'org.robofab.postScriptHintData'
p2
(dp3
s."
AnchorPoint: "caron.alt" 310 1074 mark 0
LayerCount: 2
Fore
SplineSet
655 1193 m 257
 726 1250 889 1434 920 1635 c 258
 956 1858 l 257
 635 1858 l 257
 591 1582 l 257
 756 1582 l 257
 734 1444 616 1298 556 1240 c 257
 655 1193 l 257
EndSplineSet
EndChar

StartChar: cedilla
Encoding: 121 184 214
Width: 512
VWidth: 0
Flags: W
PickledData: "(dp1
S'org.robofab.postScriptHintData'
p2
(dp3
s."
AnchorPoint: "bot" 233 0 mark 0
LayerCount: 2
Fore
SplineSet
176 -484 m 256
 340 -484 435 -395 450 -301 c 256
 464 -211 435 -117 292 -91 c 257
 302 10 l 257
 196 10 l 257
 169 -162 l 257
 266 -165 304 -225 295 -279 c 256
 287 -330 243 -365 165 -365 c 256
 146 -365 124 -363 101 -358 c 257
 82 -475 l 257
 116 -482 147 -484 176 -484 c 256
EndSplineSet
EndChar

StartChar: cent
Encoding: 99 162 215
Width: 1107
VWidth: 0
Flags: W
PickledData: "(dp1
S'org.robofab.postScriptHintData'
p2
(dp3
s."
LayerCount: 2
Fore
SplineSet
612 1006 m 257
 705 1006 l 257
 750 1291 l 257
 657 1291 l 257
 612 1006 l 257
419 -214 m 257
 512 -214 l 257
 557 71 l 257
 464 71 l 257
 419 -214 l 257
EndSplineSet
Refer: 206 99 N 1 0 0 1 0 0 2
EndChar

StartChar: circumflex
Encoding: 403 710 216
Width: 512
VWidth: 0
Flags: W
PickledData: "(dp1
S'org.robofab.postScriptHintData'
p2
(dp3
s."
AnchorPoint: "top" 221 1074 mark 0
LayerCount: 2
Fore
SplineSet
-93 1216 m 257
 137 1216 l 257
 266 1359 l 257
 341 1216 l 257
 566 1216 l 257
 404 1514 l 257
 179 1514 l 257
 -93 1216 l 257
EndSplineSet
EndChar

StartChar: comma
Encoding: 13 44 218
Width: 768
VWidth: 0
Flags: W
PickledData: "(dp1
S'org.robofab.postScriptHintData'
p2
(dp3
s."
LayerCount: 2
Fore
SplineSet
296 -389 m 257
 367 -333 531 -148 562 53 c 258
 598 276 l 257
 276 276 l 257
 232 0 l 257
 397 0 l 257
 375 -138 257 -285 197 -343 c 257
 296 -389 l 257
EndSplineSet
EndChar

StartChar: copyright
Encoding: 106 169 219
Width: 1776
VWidth: 0
Flags: W
PickledData: "(dp1
S'org.robofab.postScriptHintData'
p2
(dp3
s."
LayerCount: 2
Fore
SplineSet
830 287 m 256
 1106 287 1177 422 1205 598 c 258
 1210 632 l 257
 1094 632 l 257
 1084 571 l 258
 1060 419 997 376 844 376 c 256
 692 376 619 419 643 571 c 258
 694 890 l 258
 718 1042 806 1091 957 1091 c 256
 1109 1091 1159 1042 1135 890 c 258
 1125 826 l 257
 1242 836 l 257
 1246 861 l 258
 1275 1043 1248 1182 971 1182 c 256
 683 1182 599 1050 570 868 c 258
 526 590 l 258
 498 411 543 287 830 287 c 256
789 82 m 256
 425 82 203 357 261 722 c 256
 319 1086 627 1361 991 1361 c 256
 1357 1361 1576 1086 1518 722 c 256
 1460 357 1155 82 789 82 c 256
772 -14 m 256
 1188 -14 1558 303 1624 722 c 256
 1690 1139 1420 1456 1004 1456 c 256
 591 1456 218 1139 152 722 c 256
 86 303 359 -14 772 -14 c 256
EndSplineSet
EndChar

StartChar: currency
Encoding: 101 164 220
Width: 1126
VWidth: 0
Flags: W
PickledData: "(dp1
S'org.robofab.postScriptHintData'
p2
(dp3
s."
LayerCount: 2
Fore
SplineSet
506 381 m 256
 615 381 706 423 773 485 c 257
 896 384 l 257
 961 465 l 257
 839 563 l 257
 870 611 890 667 899 723 c 256
 908 779 905 836 888 886 c 257
 1040 986 l 257
 1006 1067 l 257
 847 964 l 257
 800 1025 723 1064 614 1064 c 256
 506 1064 416 1026 350 968 c 257
 231 1067 l 257
 166 987 l 257
 283 892 l 257
 248 840 225 782 216 723 c 256
 207 665 211 608 228 559 c 257
 85 467 l 257
 120 383 l 257
 270 480 l 257
 318 420 397 381 506 381 c 256
529 528 m 256
 398 528 352 622 368 723 c 256
 384 824 460 918 591 918 c 256
 720 918 764 824 748 723 c 256
 732 622 658 528 529 528 c 256
EndSplineSet
EndChar

StartChar: d
Encoding: 69 100 221
Width: 1228
VWidth: 0
Flags: W
PickledData: "(dp1
S'org.robofab.postScriptHintData'
p2
(dp3
s."
AnchorPoint: "mid" 1016 1313 basechar 0
AnchorPoint: "caron.alt" 1011 1074 basechar 0
AnchorPoint: "top" 600 1074 basechar 0
LayerCount: 2
Fore
SplineSet
445 -23 m 256
 555 -23 659 14 737 63 c 257
 756 0 l 257
 940 0 l 257
 1180 1516 l 257
 908 1516 l 257
 835 1059 l 257
 776 1082 703 1097 642 1097 c 256
 329 1097 172 951 141 753 c 258
 73 324 l 258
 39 108 154 -23 445 -23 c 256
507 168 m 256
 387 168 327 211 344 320 c 258
 414 759 l 258
 431 868 510 907 634 907 c 256
 710 907 772 887 806 870 c 257
 701 211 l 257
 655 186 582 168 507 168 c 256
EndSplineSet
EndChar

StartChar: dagger
Encoding: 458 8224 222
Width: 1024
VWidth: 0
Flags: W
PickledData: "(dp1
S'org.robofab.postScriptHintData'
p2
(dp3
s."
LayerCount: 2
Fore
SplineSet
304 0 m 257
 509 0 l 257
 645 857 l 257
 896 857 l 257
 921 1013 l 257
 670 1013 l 257
 719 1324 l 257
 514 1324 l 257
 465 1013 l 257
 215 1013 l 257
 190 857 l 257
 440 857 l 257
 304 0 l 257
EndSplineSet
EndChar

StartChar: daggerdbl
Encoding: 459 8225 223
Width: 1025
VWidth: 0
Flags: W
PickledData: "(dp1
S'org.robofab.postScriptHintData'
p2
(dp3
s."
LayerCount: 2
Fore
SplineSet
304 0 m 257
 509 0 l 257
 570 383 l 257
 762 383 l 257
 791 569 l 257
 599 569 l 257
 647 873 l 257
 839 873 l 257
 869 1059 l 257
 677 1059 l 257
 719 1324 l 257
 514 1324 l 257
 472 1059 l 257
 282 1059 l 257
 252 873 l 257
 442 873 l 257
 394 569 l 257
 204 569 l 257
 175 383 l 257
 365 383 l 257
 304 0 l 257
EndSplineSet
EndChar

StartChar: degree
Encoding: 113 176 227
Width: 974
VWidth: 0
Flags: W
PickledData: "(dp1
S'org.robofab.postScriptHintData'
p2
(dp3
s."
LayerCount: 2
Fore
SplineSet
459 992 m 256
 321 992 272 1082 288 1181 c 256
 303 1278 381 1370 519 1370 c 256
 655 1370 703 1278 688 1181 c 256
 672 1082 594 992 459 992 c 256
437 850 m 256
 673 850 819 1010 846 1180 c 256
 873 1351 777 1511 541 1511 c 256
 302 1511 155 1351 128 1180 c 256
 101 1010 197 850 437 850 c 256
EndSplineSet
EndChar

StartChar: dieresis
Encoding: 105 168 228
Width: 967
VWidth: 0
Flags: W
PickledData: "(dp1
S'org.robofab.postScriptHintData'
p2
(dp3
s."
AnchorPoint: "top" 450 1074 mark 0
LayerCount: 2
Fore
SplineSet
97 1244 m 257
 361 1244 l 257
 397 1477 l 257
 133 1477 l 257
 97 1244 l 257
606 1244 m 257
 871 1244 l 257
 907 1477 l 257
 642 1477 l 257
 606 1244 l 257
EndSplineSet
EndChar

StartChar: divide
Encoding: 184 247 229
Width: 1004
VWidth: 0
Flags: W
PickledData: "(dp1
S'org.robofab.postScriptHintData'
p2
(dp3
s."
LayerCount: 2
Fore
SplineSet
316 94 m 257
 544 94 l 257
 580 323 l 257
 352 323 l 257
 316 94 l 257
100 479 m 257
 880 479 l 257
 905 642 l 257
 125 642 l 257
 100 479 l 257
426 792 m 257
 654 792 l 257
 690 1021 l 257
 462 1021 l 257
 426 792 l 257
EndSplineSet
EndChar

StartChar: dollar
Encoding: 5 36 230
Width: 1281
VWidth: 0
Flags: W
PickledData: "(dp1
S'org.robofab.postScriptHintData'
p2
(dp3
s."
LayerCount: 2
Fore
SplineSet
451 -312 m 257
 561 -312 l 257
 889 1758 l 257
 779 1758 l 257
 451 -312 l 257
EndSplineSet
Refer: 123 83 N 1 0 0 1 0 0 2
EndChar

StartChar: dotaccent
Encoding: 407 729 231
Width: 489
VWidth: 0
Flags: W
PickledData: "(dp1
S'org.robofab.postScriptHintData'
p2
(dp3
s."
AnchorPoint: "top" 209 1074 mark 0
LayerCount: 2
Fore
SplineSet
97 1251 m 257
 365 1251 l 257
 405 1505 l 257
 137 1505 l 257
 97 1251 l 257
EndSplineSet
EndChar

StartChar: dotlessi
Encoding: 242 305 232
Width: 570
VWidth: 0
Flags: W
PickledData: "(dp1
S'org.robofab.postScriptHintData'
p2
(dp3
s."
AnchorPoint: "ogonek" 224 0 basechar 0
AnchorPoint: "top" 388 1074 basechar 0
LayerCount: 2
Fore
SplineSet
85 0 m 257
 336 0 l 257
 506 1074 l 257
 255 1074 l 257
 85 0 l 257
EndSplineSet
EndChar

StartChar: uni0237
Encoding: 400 567 233
Width: 673
VWidth: 0
Flags: W
PickledData: "(dp1
S'org.robofab.postScriptHintData'
p2
(dp3
s."
AnchorPoint: "top" 480 1074 basechar 0
LayerCount: 2
Fore
SplineSet
-95 -329 m 257
 14 -329 l 258
 281 -329 411 -183 445 30 c 258
 610 1074 l 257
 337 1074 l 257
 174 43 l 258
 161 -39 115 -135 -25 -135 c 258
 -70 -135 l 257
 -95 -329 l 257
EndSplineSet
EndChar

StartChar: e
Encoding: 70 101 236
Width: 1181
VWidth: 0
Flags: W
PickledData: "(dp1
S'org.robofab.postScriptHintData'
p2
(dp3
s."
AnchorPoint: "bot" 517 0 basechar 0
AnchorPoint: "ogonek" 619 0 basechar 0
AnchorPoint: "top" 703 1074 basechar 0
LayerCount: 2
Fore
SplineSet
513 -23 m 256
 793 -23 966 32 1021 330 c 257
 769 330 l 257
 739 168 673 166 548 166 c 256
 418 166 356 183 376 310 c 258
 404 485 l 257
 1047 485 l 257
 1088 745 l 258
 1122 961 1018 1097 687 1097 c 256
 408 1097 209 974 175 755 c 258
 108 336 l 258
 64 60 250 -23 513 -23 c 256
430 651 m 257
 449 772 l 258
 467 886 555 907 664 907 c 256
 773 907 855 896 836 777 c 258
 816 651 l 257
 430 651 l 257
EndSplineSet
EndChar

StartChar: eight
Encoding: 25 56 245
Width: 1379
VWidth: 0
Flags: W
PickledData: "(dp1
S'org.robofab.postScriptHintData'
p2
(dp3
s."
LayerCount: 2
Fore
SplineSet
567 -20 m 256
 920 -20 1138 119 1178 374 c 256
 1206 551 1134 697 911 783 c 257
 1127 848 1238 982 1261 1128 c 256
 1293 1333 1181 1496 809 1496 c 256
 440 1496 266 1335 234 1134 c 256
 209 975 276 847 464 783 c 257
 255 697 118 571 86 372 c 256
 47 126 225 -20 567 -20 c 256
603 193 m 256
 396 193 345 282 362 391 c 256
 380 502 481 592 678 672 c 257
 850 592 922 502 904 391 c 256
 887 283 809 193 603 193 c 256
709 869 m 257
 553 950 494 1010 511 1119 c 256
 527 1217 592 1289 776 1289 c 256
 961 1289 999 1213 984 1119 c 256
 968 1015 884 950 709 869 c 257
EndSplineSet
EndChar

StartChar: emdash
Encoding: 450 8212 249
Width: 961
VWidth: 0
Flags: W
PickledData: "(dp1
S'org.robofab.postScriptHintData'
p2
(dp3
s."
LayerCount: 2
Fore
SplineSet
-11 383 m 257
 943 383 l 257
 971 556 l 257
 17 556 l 257
 -11 383 l 257
EndSplineSet
EndChar

StartChar: emptyset
Encoding: 473 8709 250
Width: 1552
VWidth: 0
Flags: W
PickledData: "(dp1
S'org.robofab.postScriptHintData'
p2
(dp3
s."
LayerCount: 2
Fore
SplineSet
704 206 m 256
 433 206 268 410 311 682 c 256
 354 952 584 1157 855 1157 c 256
 1127 1157 1288 952 1245 682 c 256
 1202 410 976 206 704 206 c 256
680 66 m 256
 1028 66 1338 331 1393 682 c 256
 1449 1031 1223 1296 875 1296 c 256
 529 1296 217 1031 161 682 c 256
 106 331 334 66 680 66 c 256
103 70 m 257
 178 -6 l 257
 1459 1277 l 257
 1384 1353 l 257
 103 70 l 257
EndSplineSet
EndChar

StartChar: endash
Encoding: 449 8211 251
Width: 716
VWidth: 0
Flags: W
PickledData: "(dp1
S'org.robofab.postScriptHintData'
p2
(dp3
s."
LayerCount: 2
Fore
SplineSet
115 446 m 257
 575 446 l 257
 601 612 l 257
 141 612 l 257
 115 446 l 257
EndSplineSet
EndChar

StartChar: eng
Encoding: 268 331 252
Width: 1254
VWidth: 0
Flags: W
PickledData: "(dp1
S'org.robofab.postScriptHintData'
p2
(dp3
s."
LayerCount: 2
Fore
SplineSet
437 -365 m 257
 879 -365 1012 -202 1072 179 c 258
 1170 794 l 258
 1198 975 1078 1097 872 1097 c 256
 723 1097 584 1030 525 948 c 257
 545 1074 l 257
 272 1074 l 257
 102 0 l 257
 375 0 l 257
 495 758 l 258
 512 863 629 907 728 907 c 256
 812 907 911 881 893 768 c 258
 798 172 l 258
 749 -140 687 -153 439 -175 c 257
 437 -365 l 257
EndSplineSet
EndChar

StartChar: equal
Encoding: 30 61 254
Width: 880
VWidth: 0
Flags: W
PickledData: "(dp1
S'org.robofab.postScriptHintData'
p2
(dp3
s."
LayerCount: 2
Fore
SplineSet
69 371 m 257
 725 371 l 257
 752 544 l 257
 96 544 l 257
 69 371 l 257
128 740 m 257
 784 740 l 257
 811 913 l 257
 155 913 l 257
 128 740 l 257
EndSplineSet
EndChar

StartChar: estimated
Encoding: 471 8494 255
Width: 1205
VWidth: 0
Flags: W
PickledData: "(dp1
S'org.robofab.postScriptHintData'
p2
(dp3
s."
LayerCount: 2
Fore
SplineSet
707 1173 m 256
 810 1173 906 1134 950 1054 c 257
 912 808 l 257
 378 808 l 257
 417 1055 l 257
 491 1133 603 1173 707 1173 c 256
95 730 m 256
 45 413 195 178 575 178 c 256
 781 178 929 267 1047 385 c 257
 975 464 l 257
 866 363 746 304 594 304 c 256
 463 304 382 344 324 425 c 257
 368 701 l 257
 1105 701 l 257
 1161 1058 1042 1280 724 1280 c 256
 404 1280 144 1041 95 730 c 256
EndSplineSet
EndChar

StartChar: eth
Encoding: 177 240 256
Width: 1312
VWidth: 0
Flags: W
PickledData: "(dp1
S'org.robofab.postScriptHintData'
p2
(dp3
s."
LayerCount: 2
Fore
SplineSet
544 -23 m 256
 927 -23 1082 195 1124 460 c 258
 1136 536 l 258
 1231 1137 1022 1376 784 1448 c 257
 882 1598 l 257
 771 1655 l 257
 659 1485 l 257
 548 1509 440 1507 366 1502 c 257
 315 1335 l 257
 384 1334 468 1333 551 1318 c 257
 450 1167 l 257
 560 1110 l 257
 676 1284 l 257
 789 1250 892 1138 881 921 c 257
 857 944 712 975 646 975 c 256
 383 975 171 846 135 618 c 258
 91 342 l 258
 55 118 193 -23 544 -23 c 256
576 178 m 256
 409 178 350 221 368 333 c 258
 412 612 l 258
 432 743 527 793 673 793 c 256
 733 793 836 766 874 736 c 257
 876 654 859 497 849 428 c 256
 822 258 789 178 576 178 c 256
EndSplineSet
EndChar

StartChar: exclam
Encoding: 2 33 258
Width: 648
VWidth: 0
Flags: W
PickledData: "(dp1
S'org.robofab.postScriptHintData'
p2
(dp3
s."
LayerCount: 2
Fore
SplineSet
75 0 m 257
 325 0 l 257
 364 245 l 257
 114 245 l 257
 75 0 l 257
228 410 m 257
 304 410 l 257
 304 410 554 1359 573 1477 c 257
 314 1477 l 257
 295 1359 228 410 228 410 c 257
EndSplineSet
EndChar

StartChar: f
Encoding: 71 102 260
Width: 778
VWidth: 0
Flags: W
PickledData: "(dp1
S'org.robofab.postScriptHintData'
p2
(dp3
s."
AnchorPoint: "top" 536 1476 basechar 0
LayerCount: 2
Fore
SplineSet
109 0 m 257
 381 0 l 257
 524 901 l 257
 738 901 l 257
 765 1074 l 257
 551 1074 l 257
 569 1186 l 258
 580 1258 612 1327 730 1327 c 258
 814 1327 l 257
 837 1516 l 257
 711 1516 l 258
 456 1516 328 1380 287 1125 c 258
 279 1074 l 257
 136 1074 l 257
 109 901 l 257
 252 901 l 257
 109 0 l 257
EndSplineSet
EndChar

StartChar: foundryicon
Encoding: 65538 -1 262
Width: 1347
VWidth: 0
Flags: HW
PickledData: "(dp1
S'org.robofab.postScriptHintData'
p2
(dp3
s."
LayerCount: 2
Fore
SplineSet
485 405 m 257
 485 672 l 257
 591 672 l 257
 761 523 l 257
 761 672 l 257
 867 672 l 257
 867 405 l 257
 761 405 l 257
 591 552 l 257
 591 405 l 257
 485 405 l 257
280 2 m 257
 669 278 l 257
 1066 2 l 257
 922 461 l 257
 1313 755 l 257
 828 755 l 257
 669 1215 l 257
 519 755 l 257
 34 755 l 257
 423 461 l 257
 280 2 l 257
EndSplineSet
EndChar

StartChar: five
Encoding: 22 53 264
Width: 1379
VWidth: 0
Flags: W
PickledData: "(dp1
S'org.robofab.postScriptHintData'
p2
(dp3
s."
LayerCount: 2
Fore
SplineSet
599 -20 m 256
 942 -20 1187 179 1234 474 c 256
 1276 743 1129 957 831 957 c 256
 732 957 600 935 524 867 c 257
 623 1230 l 257
 1241 1230 l 257
 1279 1476 l 257
 437 1476 l 257
 235 711 l 257
 432 604 l 257
 539 692 659 707 739 707 c 256
 876 707 967 618 944 473 c 256
 912 274 782 203 618 203 c 256
 507 203 350 227 201 325 c 257
 91 126 l 257
 166 64 372 -20 599 -20 c 256
EndSplineSet
EndChar

StartChar: florin
Encoding: 322 402 267
Width: 1024
VWidth: 0
Flags: W
PickledData: "(dp1
S'org.robofab.postScriptHintData'
p2
(dp3
s."
LayerCount: 2
Fore
SplineSet
231 -205 m 256
 459 -205 502 -67 529 101 c 258
 646 843 l 257
 818 843 l 257
 837 962 l 257
 665 962 l 257
 704 1207 l 258
 716 1281 738 1347 836 1347 c 256
 850 1347 872 1342 893 1341 c 257
 916 1488 l 257
 864 1494 833 1496 796 1496 c 256
 565 1496 523 1358 495 1181 c 258
 460 962 l 257
 313 962 l 257
 294 843 l 257
 441 843 l 257
 319 74 l 258
 308 1 285 -56 195 -56 c 256
 180 -56 154 -53 131 -49 c 257
 108 -196 l 257
 161 -203 193 -205 231 -205 c 256
EndSplineSet
EndChar

StartChar: four
Encoding: 21 52 269
Width: 1379
VWidth: 0
Flags: W
PickledData: "(dp1
S'org.robofab.postScriptHintData'
p2
(dp3
s."
LayerCount: 2
Fore
SplineSet
722 0 m 257
 959 0 l 257
 1004 282 l 257
 1224 282 l 257
 1263 528 l 257
 1043 528 l 257
 1096 862 l 257
 859 862 l 257
 806 528 l 257
 461 528 l 257
 1041 1476 l 257
 736 1476 l 257
 137 531 l 257
 98 282 l 257
 767 282 l 257
 722 0 l 257
EndSplineSet
Substitution2: "'sups' Superscript lookup 10 subtable" uni2074
EndChar

StartChar: uni2074
Encoding: 466 8308 270
Width: 1116
VWidth: 0
Flags: W
PickledData: "(dp1
S'org.robofab.postScriptHintData'
p2
(dp3
s."
LayerCount: 2
Fore
SplineSet
545 616 m 257
 700 616 l 257
 731 813 l 257
 876 813 l 257
 901 973 l 257
 756 973 l 257
 790 1183 l 257
 635 1183 l 257
 601 973 l 257
 394 973 l 257
 721 1566 l 257
 510 1566 l 257
 162 975 l 257
 136 813 l 257
 576 813 l 257
 545 616 l 257
EndSplineSet
EndChar

StartChar: fraction
Encoding: 465 8260 271
Width: 919
VWidth: 0
Flags: W
PickledData: "(dp1
S'org.robofab.postScriptHintData'
p2
(dp3
s."
LayerCount: 2
Fore
SplineSet
-65 0 m 257
 178 0 l 257
 985 1516 l 257
 742 1516 l 257
 -65 0 l 257
EndSplineSet
EndChar

StartChar: g
Encoding: 72 103 272
Width: 1243
VWidth: 0
Flags: W
PickledData: "(dp1
S'org.robofab.postScriptHintData'
p2
(dp3
s."
AnchorPoint: "top" 696 1074 basechar 0
LayerCount: 2
Fore
SplineSet
468 -441 m 256
 813 -441 979 -277 1021 -12 c 258
 1193 1075 l 257
 991 1075 l 257
 956 997 l 257
 898 1052 789 1097 671 1097 c 256
 368 1097 236 935 207 751 c 258
 146 366 l 258
 113 155 253 32 512 32 c 256
 594 32 695 50 765 88 c 257
 746 -30 l 258
 723 -178 646 -242 490 -242 c 256
 407 -242 304 -228 207 -200 c 257
 122 -385 l 257
 191 -421 335 -441 468 -441 c 256
586 213 m 256
 473 213 399 248 416 356 c 258
 480 757 l 258
 497 865 572 907 696 907 c 256
 819 907 887 860 883 832 c 258
 792 261 l 257
 751 234 678 213 586 213 c 256
EndSplineSet
EndChar

StartChar: germandbls
Encoding: 160 223 279
Width: 1286
VWidth: 0
Flags: W
PickledData: "(dp1
S'org.robofab.postScriptHintData'
p2
(dp3
s."
LayerCount: 2
Fore
SplineSet
22 0 m 257
 332 0 l 257
 511 1129 l 258
 529 1244 579 1318 724 1318 c 256
 904 1318 909 1207 894 1110 c 256
 877 1001 824 893 642 893 c 257
 612 703 l 257
 812 683 908 649 872 422 c 256
 847 264 763 169 513 169 c 257
 501 -20 l 257
 930 -20 1119 156 1158 400 c 256
 1181 547 1168 759 891 819 c 257
 1062 864 1154 990 1175 1122 c 256
 1209 1336 1107 1507 734 1507 c 256
 415 1507 236 1350 199 1118 c 258
 22 0 l 257
EndSplineSet
EndChar

StartChar: grave
Encoding: 65 96 280
Width: 556
VWidth: 0
Flags: W
PickledData: "(dp1
S'org.robofab.postScriptHintData'
p2
(dp3
s."
AnchorPoint: "top" 345 1074 mark 0
LayerCount: 2
Fore
SplineSet
105 1583 m 257
 280 1218 l 257
 429 1218 l 257
 373 1583 l 257
 105 1583 l 257
EndSplineSet
EndChar

StartChar: greater
Encoding: 31 62 281
Width: 1024
VWidth: 0
Flags: W
PickledData: "(dp1
S'org.robofab.postScriptHintData'
p2
(dp3
s."
LayerCount: 2
Fore
SplineSet
69 31 m 257
 879 446 l 257
 913 665 l 257
 235 1081 l 257
 198 848 l 257
 715 556 l 257
 105 260 l 257
 69 31 l 257
EndSplineSet
EndChar

StartChar: greaterequal
Encoding: 486 8805 282
Width: 1250
VWidth: 0
Flags: W
PickledData: "(dp1
S'org.robofab.postScriptHintData'
p2
(dp3
s."
LayerCount: 2
Fore
SplineSet
181 236 m 257
 989 651 l 257
 1024 870 l 257
 347 1286 l 257
 310 1053 l 257
 827 761 l 257
 217 465 l 257
 181 236 l 257
82 0 m 257
 964 0 l 257
 992 175 l 257
 110 175 l 257
 82 0 l 257
EndSplineSet
EndChar

StartChar: guillemotleft
Encoding: 108 171 283
Width: 1024
VWidth: 0
Flags: W
PickledData: "(dp1
S'org.robofab.postScriptHintData'
p2
(dp3
s."
LayerCount: 2
Fore
SplineSet
276 80 m 257
 427 150 l 257
 280 530 l 257
 547 910 l 257
 411 980 l 257
 67 530 l 257
 276 80 l 257
690 80 m 257
 839 150 l 257
 694 530 l 257
 959 910 l 257
 825 980 l 257
 481 530 l 257
 690 80 l 257
EndSplineSet
EndChar

StartChar: guillemotright
Encoding: 124 187 284
Width: 1024
VWidth: 0
Flags: W
PickledData: "(dp1
S'org.robofab.postScriptHintData'
p2
(dp3
s."
LayerCount: 2
Fore
SplineSet
228 80 m 257
 572 530 l 257
 363 980 l 257
 214 910 l 257
 359 530 l 257
 94 150 l 257
 228 80 l 257
642 80 m 257
 986 530 l 257
 777 980 l 257
 626 910 l 257
 773 530 l 257
 506 150 l 257
 642 80 l 257
EndSplineSet
EndChar

StartChar: guilsinglleft
Encoding: 463 8249 285
Width: 768
VWidth: 0
Flags: W
PickledData: "(dp1
S'org.robofab.postScriptHintData'
p2
(dp3
s."
LayerCount: 2
Fore
SplineSet
383 80 m 257
 534 150 l 257
 387 530 l 257
 654 910 l 257
 518 980 l 257
 174 530 l 257
 383 80 l 257
EndSplineSet
EndChar

StartChar: guilsinglright
Encoding: 464 8250 286
Width: 768
VWidth: 0
Flags: W
PickledData: "(dp1
S'org.robofab.postScriptHintData'
p2
(dp3
s."
LayerCount: 2
Fore
SplineSet
256 80 m 257
 600 530 l 257
 391 980 l 257
 240 910 l 257
 387 530 l 257
 120 150 l 257
 256 80 l 257
EndSplineSet
EndChar

StartChar: h
Encoding: 73 104 287
Width: 1272
VWidth: 0
Flags: W
PickledData: "(dp1
S'org.robofab.postScriptHintData'
p2
(dp3
s."
AnchorPoint: "top" 906 1305 basechar 0
LayerCount: 2
Fore
SplineSet
50 0 m 257
 322 0 l 257
 439 738 l 258
 455 842 579 894 677 894 c 256
 762 894 856 869 838 756 c 258
 718 0 l 257
 990 0 l 257
 1116 795 l 258
 1145 976 1038 1097 832 1097 c 256
 683 1097 534 1045 476 970 c 257
 562 1515 l 257
 290 1515 l 257
 50 0 l 257
EndSplineSet
EndChar

StartChar: hbar
Encoding: 232 295 288
Width: 1254
VWidth: 0
Flags: W
PickledData: "(dp1
S'org.robofab.postScriptHintData'
p2
(dp3
s."
LayerCount: 2
Fore
SplineSet
78 1221 m 257
 808 1221 l 257
 831 1364 l 257
 101 1364 l 257
 78 1221 l 257
EndSplineSet
Refer: 287 104 N 1 0 0 1 0 0 2
EndChar

StartChar: hungarumlaut
Encoding: 411 733 290
Width: 1024
VWidth: 0
Flags: W
PickledData: "(dp1
S'org.robofab.postScriptHintData'
p2
(dp3
s."
AnchorPoint: "top" 324 1074 mark 0
LayerCount: 2
Fore
SplineSet
77 1157 m 257
 226 1157 l 257
 517 1522 l 257
 249 1522 l 257
 77 1157 l 257
487 1157 m 257
 636 1157 l 257
 927 1522 l 257
 659 1522 l 257
 487 1157 l 257
EndSplineSet
EndChar

StartChar: hyphen
Encoding: 14 45 291
Width: 968
VWidth: 0
Flags: W
PickledData: "(dp1
S'org.robofab.postScriptHintData'
p2
(dp3
s."
AnchorPoint: "mid" 476 569 mark 0
LayerCount: 2
Fore
SplineSet
120 494 m 257
 824 494 l 257
 848 642 l 257
 144 642 l 257
 120 494 l 257
EndSplineSet
EndChar

StartChar: infinity
Encoding: 481 8734 304
Width: 2048
VWidth: 0
Flags: W
PickledData: "(dp1
S'org.robofab.postScriptHintData'
p2
(dp3
s."
LayerCount: 2
Fore
SplineSet
444 360 m 256
 627 360 1001 620 1001 620 c 257
 1001 620 1293 360 1476 360 c 256
 1638 360 1788 500 1830 765 c 256
 1872 1030 1766 1170 1604 1170 c 256
 1421 1170 1047 910 1047 910 c 257
 1047 910 755 1170 572 1170 c 256
 410 1170 260 1030 218 765 c 256
 176 500 282 360 444 360 c 256
499 593 m 256
 390 593 362 666 378 765 c 256
 394 864 444 937 553 937 c 256
 627 937 791 817 889 765 c 257
 775 713 573 593 499 593 c 256
1495 593 m 256
 1421 593 1257 713 1159 765 c 257
 1273 817 1475 937 1549 937 c 256
 1658 937 1686 864 1670 765 c 256
 1654 666 1604 593 1495 593 c 256
EndSplineSet
EndChar

StartChar: integral
Encoding: 482 8747 305
Width: 693
VWidth: 0
Flags: W
PickledData: "(dp1
S'org.robofab.postScriptHintData'
p2
(dp3
s."
LayerCount: 2
Fore
SplineSet
41 -263 m 256
 269 -263 312 -125 338 43 c 258
 514 1152 l 258
 526 1227 548 1292 646 1292 c 256
 660 1292 683 1288 703 1286 c 257
 727 1433 l 257
 675 1439 643 1442 606 1442 c 256
 375 1442 333 1303 305 1126 c 258
 129 16 l 258
 118 -57 95 -114 5 -114 c 256
 -10 -114 -36 -111 -59 -107 c 257
 -83 -254 l 257
 -30 -261 3 -263 41 -263 c 256
EndSplineSet
EndChar

StartChar: k
Encoding: 76 107 311
Width: 1211
VWidth: 0
Flags: W
PickledData: "(dp1
S'org.robofab.postScriptHintData'
p2
(dp3
s."
AnchorPoint: "bot" 544 0 basechar 0
AnchorPoint: "top" 876 1305 basechar 0
LayerCount: 2
Fore
SplineSet
50 0 m 257
 322 0 l 257
 381 374 l 257
 521 497 l 257
 778 0 l 257
 1075 0 l 257
 750 611 l 257
 1227 1074 l 257
 917 1074 l 257
 417 602 l 257
 562 1516 l 257
 290 1516 l 257
 50 0 l 257
EndSplineSet
EndChar

StartChar: kgreenlandic
Encoding: 249 312 314
Width: 1213
VWidth: 0
Flags: W
PickledData: "(dp1
S'org.robofab.postScriptHintData'
p2
(dp3
s."
LayerCount: 2
Fore
SplineSet
86 0 m 257
 359 0 l 257
 420 385 l 257
 531 483 l 257
 779 0 l 257
 1105 0 l 257
 782 605 l 257
 1254 1074 l 257
 930 1074 l 257
 869 1018 515 657 454 602 c 257
 529 1074 l 257
 256 1074 l 257
 86 0 l 257
EndSplineSet
EndChar

StartChar: l
Encoding: 77 108 315
Width: 734
VWidth: 0
Flags: W
PickledData: "(dp1
S'org.robofab.postScriptHintData'
p2
(dp3
s."
AnchorPoint: "bot" 353 0 basechar 0
AnchorPoint: "caron.alt" 376 1074 basechar 0
AnchorPoint: "top" 456 1513 basechar 0
LayerCount: 2
Fore
SplineSet
412 -12 m 258
 526 -12 l 257
 579 190 l 257
 545 190 l 258
 399 190 361 239 380 357 c 258
 563 1515 l 257
 291 1515 l 257
 107 353 l 258
 64 83 173 -12 412 -12 c 258
EndSplineSet
EndChar

StartChar: less
Encoding: 29 60 320
Width: 1024
VWidth: 0
Flags: W
PickledData: "(dp1
S'org.robofab.postScriptHintData'
p2
(dp3
s."
LayerCount: 2
Fore
SplineSet
773 31 m 257
 809 262 l 257
 293 556 l 257
 903 850 l 257
 939 1081 l 257
 129 664 l 257
 94 445 l 257
 773 31 l 257
EndSplineSet
EndChar

StartChar: lessequal
Encoding: 485 8804 321
Width: 1252
VWidth: 0
Flags: W
PickledData: "(dp1
S'org.robofab.postScriptHintData'
p2
(dp3
s."
LayerCount: 2
Fore
SplineSet
959 239 m 257
 995 470 l 257
 439 764 l 257
 1088 1058 l 257
 1125 1289 l 257
 275 872 l 257
 240 653 l 257
 959 239 l 257
127 0 m 257
 919 0 l 257
 947 175 l 257
 155 175 l 257
 127 0 l 257
EndSplineSet
EndChar

StartChar: logicalnot
Encoding: 109 172 323
Width: 1024
VWidth: 0
Flags: W
PickledData: "(dp1
S'org.robofab.postScriptHintData'
p2
(dp3
s."
LayerCount: 2
Fore
SplineSet
663 226 m 257
 811 226 l 257
 895 757 l 257
 171 757 l 257
 144 587 l 257
 720 587 l 257
 663 226 l 257
EndSplineSet
EndChar

StartChar: lozenge
Encoding: 487 9674 324
Width: 1104
VWidth: 0
Flags: W
PickledData: "(dp1
S'org.robofab.postScriptHintData'
p2
(dp3
s."
LayerCount: 2
Fore
SplineSet
347 0 m 257
 545 0 l 257
 1002 754 l 257
 783 1505 l 257
 585 1505 l 257
 102 754 l 257
 347 0 l 257
478 188 m 257
 316 754 l 257
 655 1307 l 257
 793 754 l 257
 478 188 l 257
EndSplineSet
EndChar

StartChar: lslash
Encoding: 259 322 325
Width: 708
VWidth: 0
Flags: W
PickledData: "(dp1
S'org.robofab.postScriptHintData'
p2
(dp3
s."
LayerCount: 2
Fore
SplineSet
14 680 m 257
 625 915 l 257
 648 1059 l 257
 36 823 l 257
 14 680 l 257
EndSplineSet
Refer: 315 108 N 1 0 0 1 0 0 2
EndChar

StartChar: m
Encoding: 78 109 326
Width: 1912
VWidth: 0
Flags: W
PickledData: "(dp1
S'org.robofab.postScriptHintData'
p2
(dp3
s."
AnchorPoint: "top" 1145 1074 basechar 0
LayerCount: 2
Fore
SplineSet
81 0 m 257
 353 0 l 257
 470 739 l 258
 487 844 622 897 720 897 c 256
 805 897 877 875 859 762 c 258
 738 0 l 257
 1010 0 l 257
 1129 750 l 257
 1152 846 1283 897 1380 897 c 256
 1464 897 1530 875 1512 762 c 258
 1391 0 l 257
 1663 0 l 257
 1789 794 l 258
 1818 975 1702 1097 1496 1097 c 256
 1326 1097 1208 1042 1118 964 c 257
 1077 1056 982 1097 844 1097 c 256
 665 1097 544 1011 508 978 c 257
 523 1074 l 257
 251 1074 l 257
 81 0 l 257
EndSplineSet
EndChar

StartChar: macron
Encoding: 112 175 327
Width: 511
VWidth: 0
Flags: W
PickledData: "(dp1
S'org.robofab.postScriptHintData'
p2
(dp3
s."
AnchorPoint: "mid" 258 1329 mark 0
AnchorPoint: "top" 217 1074 mark 0
LayerCount: 2
Fore
SplineSet
-59 1251 m 257
 545 1251 l 257
 569 1408 l 257
 -35 1408 l 257
 -59 1251 l 257
EndSplineSet
EndChar

StartChar: minus
Encoding: 477 8722 329
Width: 792
VWidth: 0
Flags: W
PickledData: "(dp1
S'org.robofab.postScriptHintData'
p2
(dp3
s."
LayerCount: 2
Fore
SplineSet
108 439 m 257
 650 439 l 257
 678 619 l 257
 136 619 l 257
 108 439 l 257
EndSplineSet
EndChar

StartChar: uni03BC
Encoding: 421 956 330
Width: 1246
VWidth: 0
Flags: W
PickledData: "(dp1
S'org.robofab.postScriptHintData'
p2
(dp3
s."
LayerCount: 2
Fore
SplineSet
919 1074 m 257
 799 317 l 258
 783 217 661 166 562 166 c 256
 478 166 385 196 402 308 c 258
 524 1074 l 257
 252 1074 l 257
 44 -236 l 257
 296 -236 l 257
 334 2 l 257
 388 -12 438 -19 483 -19 c 256
 619 -19 717 41 770 135 c 257
 755 0 l 257
 1022 0 l 257
 1192 1074 l 257
 919 1074 l 257
EndSplineSet
EndChar

StartChar: multiply
Encoding: 152 215 331
Width: 1025
VWidth: 0
Flags: W
PickledData: "(dp1
S'org.robofab.postScriptHintData'
p2
(dp3
s."
LayerCount: 2
Fore
SplineSet
208 216 m 257
 494 458 l 257
 704 216 l 257
 834 344 l 257
 634 576 l 257
 907 806 l 257
 818 937 l 257
 532 694 l 257
 322 937 l 257
 190 806 l 257
 392 576 l 257
 117 344 l 257
 208 216 l 257
EndSplineSet
EndChar

StartChar: n
Encoding: 79 110 332
Width: 1272
VWidth: 0
Flags: W
PickledData: "(dp1
S'org.robofab.postScriptHintData'
p2
(dp3
s."
AnchorPoint: "bot" 577 0 basechar 0
AnchorPoint: "top" 762 1074 basechar 0
LayerCount: 2
Fore
SplineSet
81 0 m 257
 353 0 l 257
 469 735 l 258
 486 840 606 894 704 894 c 256
 789 894 888 868 871 755 c 258
 751 0 l 257
 1023 0 l 257
 1145 770 l 258
 1174 951 1091 1090 886 1098 c 256
 668 1107 534 999 508 979 c 257
 523 1074 l 257
 251 1074 l 257
 81 0 l 257
EndSplineSet
EndChar

StartChar: nine
Encoding: 26 57 337
Width: 1379
VWidth: 0
Flags: W
PickledData: "(dp1
S'org.robofab.postScriptHintData'
p2
(dp3
s."
LayerCount: 2
Fore
SplineSet
368 0 m 257
 688 0 l 257
 1061 528 l 258
 1163 677 1244 833 1275 1024 c 256
 1323 1327 1162 1496 826 1496 c 256
 478 1496 259 1332 213 1037 c 256
 156 679 314 569 628 569 c 256
 658 569 745 578 783 589 c 257
 368 0 l 257
712 782 m 256
 520 782 467 844 498 1037 c 256
 523 1194 627 1282 789 1282 c 256
 940 1282 1010 1195 985 1039 c 256
 955 848 887 782 712 782 c 256
EndSplineSet
EndChar

StartChar: notequal
Encoding: 484 8800 339
Width: 919
VWidth: 0
Flags: W
PickledData: "(dp1
S'org.robofab.postScriptHintData'
p2
(dp3
s."
LayerCount: 2
Fore
SplineSet
51 150 m 257
 224 150 l 257
 813 1094 l 257
 640 1094 l 257
 51 150 l 257
EndSplineSet
Refer: 254 61 N 1 0 0 1 0 0 2
EndChar

StartChar: numbersign
Encoding: 4 35 341
Width: 1430
VWidth: 0
Flags: W
PickledData: "(dp1
S'org.robofab.postScriptHintData'
p2
(dp3
s."
LayerCount: 2
Fore
SplineSet
106 0 m 257
 312 0 l 257
 471 478 l 257
 728 478 l 257
 566 0 l 257
 772 0 l 257
 930 478 l 257
 1203 478 l 257
 1225 618 l 257
 977 618 l 257
 1069 896 l 257
 1293 896 l 257
 1315 1036 l 257
 1116 1036 l 257
 1262 1477 l 257
 1064 1477 l 257
 915 1036 l 257
 656 1036 l 257
 802 1477 l 257
 604 1477 l 257
 455 1036 l 257
 175 1036 l 257
 153 896 l 257
 409 896 l 257
 315 618 l 257
 85 618 l 257
 63 478 l 257
 268 478 l 257
 106 0 l 257
517 618 m 257
 609 896 l 257
 868 896 l 257
 774 618 l 257
 517 618 l 257
EndSplineSet
EndChar

StartChar: o
Encoding: 80 111 342
Width: 1212
VWidth: 0
Flags: W
PickledData: "(dp1
S'org.robofab.postScriptHintData'
p2
(dp3
s."
AnchorPoint: "bot" 523 0 basechar 0
AnchorPoint: "ogonek" 588 0 basechar 0
AnchorPoint: "top" 693 1074 basechar 0
LayerCount: 2
Fore
SplineSet
547 166 m 256
 422 166 359 204 377 313 c 258
 447 760 l 258
 465 869 547 907 665 907 c 256
 788 907 853 869 835 760 c 258
 765 313 l 258
 747 204 663 166 547 166 c 256
517 -23 m 256
 866 -23 1005 112 1038 325 c 258
 1105 748 l 258
 1140 967 988 1097 695 1097 c 256
 400 1097 208 967 173 748 c 258
 106 325 l 258
 73 111 178 -23 517 -23 c 256
EndSplineSet
Substitution2: "Single Substitution lookup 14 subtable" ordmasculine
EndChar

StartChar: oe
Encoding: 276 339 349
Width: 1780
VWidth: 0
Flags: W
PickledData: "(dp1
S'org.robofab.postScriptHintData'
p2
(dp3
s."
LayerCount: 2
Fore
SplineSet
495 -23 m 256
 645 -23 753 22 834 90 c 257
 903 18 1008 -23 1133 -23 c 256
 1423 -23 1585 45 1641 357 c 257
 1387 357 l 257
 1357 188 1290 166 1168 166 c 256
 1054 166 989 203 1008 321 c 258
 1038 512 l 257
 1666 512 l 257
 1703 745 l 258
 1737 961 1635 1097 1309 1097 c 256
 1178 1097 1064 1061 973 977 c 257
 908 1060 805 1097 673 1097 c 256
 396 1097 193 970 158 749 c 258
 91 326 l 258
 57 112 157 -23 495 -23 c 256
525 166 m 256
 402 166 344 205 362 314 c 258
 433 762 l 258
 450 870 529 907 643 907 c 256
 766 907 822 869 805 762 c 258
 734 314 l 258
 716 205 639 166 525 166 c 256
1061 655 m 257
 1077 760 l 258
 1095 874 1177 907 1286 907 c 256
 1395 907 1468 884 1449 765 c 258
 1432 655 l 257
 1061 655 l 257
EndSplineSet
EndChar

StartChar: ogonek
Encoding: 409 731 350
Width: 487
VWidth: 0
Flags: W
PickledData: "(dp1
S'org.robofab.postScriptHintData'
p2
(dp3
s."
AnchorPoint: "ogonek" 305 0 mark 0
LayerCount: 2
Fore
SplineSet
368 -508 m 257
 403 -367 l 257
 314 -367 230 -350 247 -245 c 256
 261 -156 316 -70 370 9 c 257
 255 9 l 257
 151 -76 70 -194 54 -294 c 256
 24 -480 207 -510 368 -508 c 257
EndSplineSet
EndChar

StartChar: one
Encoding: 18 49 355
Width: 1379
VWidth: 0
Flags: W
PickledData: "(dp1
S'org.robofab.postScriptHintData'
p2
(dp3
s."
LayerCount: 2
Fore
SplineSet
132 0 m 257
 1116 0 l 257
 1149 209 l 257
 823 209 l 257
 1024 1476 l 257
 819 1476 l 257
 350 1404 l 257
 342 1187 l 257
 690 1241 l 257
 526 209 l 257
 165 209 l 257
 132 0 l 257
EndSplineSet
Substitution2: "'sups' Superscript lookup 10 subtable" uni00B9
EndChar

StartChar: onehalf
Encoding: 126 189 356
Width: 2579
VWidth: 0
Flags: W
PickledData: "(dp1
S'org.robofab.postScriptHintData'
p2
(dp3
s."
LayerCount: 2
Fore
SplineSet
1604 -2 m 257
 2251 -2 l 257
 2276 160 l 257
 1839 160 l 257
 2108 386 l 258
 2244 501 2359 612 2383 767 c 256
 2411 940 2346 1071 2076 1071 c 256
 1791 1071 1685 958 1645 706 c 257
 1863 706 l 257
 1887 860 1917 911 2052 911 c 256
 2156 911 2186 863 2169 765 c 257
 2155 675 2097 606 1996 518 c 258
 1584 159 l 257
 1604 -2 l 257
79 422 m 257
 804 422 l 257
 827 569 l 257
 581 569 l 257
 725 1477 l 257
 579 1477 l 257
 235 1424 l 257
 230 1279 l 257
 488 1318 l 257
 369 569 l 257
 101 569 l 257
 79 422 l 257
760 0 m 257
 934 0 l 257
 1813 1505 l 257
 1639 1505 l 257
 760 0 l 257
EndSplineSet
Ligature2: "'frac' Diagonal Fractions lookup 11 subtable" one slash two
EndChar

StartChar: onequarter
Encoding: 125 188 357
Width: 2433
VWidth: 0
Flags: W
PickledData: "(dp1
S'org.robofab.postScriptHintData'
p2
(dp3
s."
LayerCount: 2
Fore
SplineSet
1859 0 m 257
 2018 0 l 257
 2051 210 l 257
 2219 210 l 257
 2245 373 l 257
 2077 373 l 257
 2115 615 l 257
 1956 615 l 257
 1918 373 l 257
 1619 373 l 257
 1999 1074 l 257
 1808 1074 l 257
 1416 369 l 257
 1391 210 l 257
 1892 210 l 257
 1859 0 l 257
79 422 m 257
 804 422 l 257
 827 569 l 257
 581 569 l 257
 725 1477 l 257
 579 1477 l 257
 234 1424 l 257
 229 1279 l 257
 488 1318 l 257
 369 569 l 257
 101 569 l 257
 79 422 l 257
730 0 m 257
 904 0 l 257
 1783 1505 l 257
 1609 1505 l 257
 730 0 l 257
EndSplineSet
Ligature2: "'frac' Diagonal Fractions lookup 11 subtable" one slash four
EndChar

StartChar: uni00B9
Encoding: 122 185 358
Width: 1127
VWidth: 0
Flags: W
PickledData: "(dp1
S'org.robofab.postScriptHintData'
p2
(dp3
s."
LayerCount: 2
Fore
SplineSet
139 624 m 257
 867 624 l 257
 889 761 l 257
 640 761 l 257
 766 1556 l 257
 631 1556 l 257
 276 1509 l 257
 271 1366 l 257
 546 1401 l 257
 445 761 l 257
 161 761 l 257
 139 624 l 257
EndSplineSet
EndChar

StartChar: ordfeminine
Encoding: 107 170 360
Width: 1024
VWidth: 0
Flags: W
PickledData: "(dp1
S'org.robofab.postScriptHintData'
p2
(dp3
sS'com.typemytype.robofont.layerData'
p4
(dp5
s."
LayerCount: 2
Fore
SplineSet
310 517 m 257
 437 517 542 591 599 656 c 257
 618 582 643 531 763 531 c 258
 848 531 l 257
 893 701 l 257
 823 701 811 728 825 812 c 258
 881 1166 l 258
 911 1356 841 1478 582 1478 c 256
 345 1478 219 1363 191 1185 c 257
 186 1158 l 257
 391 1158 l 257
 397 1194 l 258
 408 1265 441 1316 551 1316 c 256
 649 1316 678 1278 667 1204 c 257
 647 1088 579 1087 415 1037 c 256
 158 959 114 897 97 767 c 256
 77 615 160 518 308 518 c 257
 310 517 l 257
408 684 m 258
 335 684 303 724 312 796 c 256
 318 848 354 896 451 924 c 256
 528 946 603 976 634 1002 c 257
 597 770 l 257
 547 706 462 684 409 684 c 258
 408 684 l 258
EndSplineSet
EndChar

StartChar: ordmasculine
Encoding: 123 186 361
Width: 1024
VWidth: 0
Flags: W
PickledData: "(dp1
S'org.robofab.postScriptHintData'
p2
(dp3
s."
LayerCount: 2
Fore
SplineSet
459 675 m 258
 358 675 307 708 322 802 c 258
 383 1187 l 258
 398 1281 465 1314 561 1314 c 256
 661 1314 713 1281 698 1187 c 258
 637 802 l 258
 622 708 555 675 461 675 c 258
 459 675 l 258
437 512 m 256
 718 513 830 628 859 811 c 258
 917 1175 l 258
 947 1363 825 1475 588 1475 c 256
 349 1475 195 1363 165 1175 c 258
 107 811 l 258
 78 627 162 512 437 512 c 256
EndSplineSet
EndChar

StartChar: oslash
Encoding: 185 248 362
Width: 1180
VWidth: 0
Flags: W
PickledData: "(dp1
S'org.robofab.postScriptHintData'
p2
(dp3
s."
AnchorPoint: "top" 686 1074 basechar 0
LayerCount: 2
Fore
SplineSet
249 -214 m 257
 1011 1260 l 257
 942 1281 l 257
 180 -194 l 257
 249 -214 l 257
EndSplineSet
Refer: 342 111 N 1 0 0 1 0 0 2
EndChar

StartChar: p
Encoding: 81 112 365
Width: 1210
VWidth: 0
Flags: W
PickledData: "(dp1
S'org.robofab.postScriptHintData'
p2
(dp3
s."
AnchorPoint: "top" 816 1074 basechar 0
LayerCount: 2
Fore
SplineSet
49 -410 m 257
 321 -410 l 257
 388 17 l 257
 437 -6 502 -23 587 -23 c 256
 890 -23 1054 142 1083 326 c 258
 1151 751 l 258
 1183 957 1056 1097 796 1097 c 256
 679 1097 569 1056 490 1004 c 257
 474 1074 l 257
 284 1074 l 257
 49 -410 l 257
594 166 m 256
 489 166 433 205 419 213 c 257
 519 841 l 257
 555 872 633 907 720 907 c 256
 834 907 896 863 879 755 c 258
 810 320 l 258
 793 211 718 166 594 166 c 256
EndSplineSet
EndChar

StartChar: paragraph
Encoding: 119 182 366
Width: 1222
VWidth: 0
Flags: W
PickledData: "(dp1
S'org.robofab.postScriptHintData'
p2
(dp3
s."
LayerCount: 2
Fore
SplineSet
330 0 m 257
 502 0 l 257
 713 1334 l 257
 944 1334 l 257
 733 0 l 257
 905 0 l 257
 1139 1476 l 257
 579 1476 l 258
 385 1476 198 1389 164 1173 c 256
 131 963 272 859 466 858 c 257
 330 0 l 257
EndSplineSet
EndChar

StartChar: parenleft
Encoding: 9 40 367
Width: 946
VWidth: 0
Flags: W
PickledData: "(dp1
S'org.robofab.postScriptHintData'
p2
(dp3
s."
LayerCount: 2
Fore
SplineSet
645 -159 m 257
 679 56 l 257
 471 56 394 121 437 390 c 258
 536 1020 l 258
 579 1291 679 1359 885 1359 c 257
 919 1575 l 257
 481 1576 308 1342 252 986 c 258
 162 420 l 258
 106 67 208 -160 645 -159 c 257
EndSplineSet
EndChar

StartChar: parenright
Encoding: 10 41 368
Width: 946
VWidth: 0
Flags: W
PickledData: "(dp1
S'org.robofab.postScriptHintData'
p2
(dp3
s."
LayerCount: 2
Fore
SplineSet
44 -159 m 257
 482 -160 654 74 710 430 c 258
 800 996 l 258
 856 1349 755 1576 318 1575 c 257
 284 1359 l 257
 492 1359 569 1295 526 1025 c 258
 426 395 l 258
 384 125 284 57 78 57 c 257
 44 -159 l 257
EndSplineSet
EndChar

StartChar: partialdiff
Encoding: 472 8706 369
Width: 1216
VWidth: 0
Flags: W
PickledData: "(dp1
S'org.robofab.postScriptHintData'
p2
(dp3
s."
LayerCount: 2
Fore
SplineSet
354 -20 m 256
 747 -20 1051 387 1133 902 c 256
 1196 1303 994 1496 705 1496 c 256
 577 1496 427 1454 309 1389 c 257
 334 1288 l 257
 446 1343 522 1364 600 1364 c 256
 768 1364 902 1241 857 958 c 256
 856 950 854 942 853 934 c 257
 389 906 85 573 43 310 c 256
 16 136 103 -20 354 -20 c 256
392 130 m 256
 358 130 336 186 351 282 c 256
 382 477 568 744 822 794 c 257
 756 529 579 130 392 130 c 256
EndSplineSet
EndChar

StartChar: percent
Encoding: 6 37 371
Width: 2114
VWidth: 0
Flags: W
PickledData: "(dp1
S'org.robofab.postScriptHintData'
p2
(dp3
s."
LayerCount: 2
Fore
SplineSet
507 794 m 256
 380 794 383 894 404 1029 c 258
 418 1118 l 258
 439 1248 462 1337 593 1337 c 256
 726 1337 721 1248 700 1116 c 258
 686 1029 l 258
 665 894 634 794 507 794 c 256
486 664 m 256
 716 664 815 814 852 1043 c 258
 860 1097 l 258
 895 1330 844 1467 614 1467 c 256
 383 1467 292 1329 255 1096 c 258
 247 1043 l 258
 210 815 256 664 486 664 c 256
1517 111 m 256
 1389 111 1392 211 1413 346 c 258
 1427 435 l 258
 1448 565 1471 654 1603 654 c 256
 1735 654 1730 565 1709 433 c 258
 1695 346 l 258
 1674 211 1643 111 1517 111 c 256
1496 -19 m 256
 1726 -19 1824 131 1860 360 c 258
 1869 414 l 258
 1904 647 1854 784 1624 784 c 256
 1393 784 1301 646 1264 413 c 258
 1255 360 l 258
 1219 132 1266 -19 1496 -19 c 256
579 0 m 257
 757 0 l 257
 1524 1446 l 257
 1351 1446 l 257
 579 0 l 257
EndSplineSet
EndChar

StartChar: period
Encoding: 15 46 372
Width: 634
VWidth: 0
Flags: W
PickledData: "(dp1
S'org.robofab.postScriptHintData'
p2
(dp3
s."
LayerCount: 2
Fore
SplineSet
142 0 m 257
 440 0 l 257
 484 284 l 257
 186 284 l 257
 142 0 l 257
EndSplineSet
EndChar

StartChar: periodcentered
Encoding: 120 183 373
Width: 512
VWidth: 0
Flags: W
PickledData: "(dp1
S'org.robofab.postScriptHintData'
p2
(dp3
s."
AnchorPoint: "mid" 1 902 mark 0
LayerCount: 2
Fore
SplineSet
245 780 m 257
 493 780 l 257
 531 1025 l 257
 283 1025 l 257
 245 780 l 257
EndSplineSet
EndChar

StartChar: perthousand
Encoding: 462 8240 374
Width: 2769
VWidth: 0
Flags: W
PickledData: "(dp1
S'org.robofab.postScriptHintData'
p2
(dp3
s."
LayerCount: 2
Fore
SplineSet
440 788 m 256
 312 788 314 888 336 1023 c 258
 350 1112 l 258
 371 1242 394 1331 526 1331 c 256
 658 1331 653 1242 632 1110 c 258
 618 1023 l 258
 596 888 567 788 440 788 c 256
419 658 m 256
 649 658 747 808 783 1037 c 258
 792 1091 l 258
 827 1324 776 1461 546 1461 c 256
 315 1461 223 1323 186 1090 c 258
 178 1037 l 258
 142 809 189 658 419 658 c 256
1449 111 m 256
 1321 111 1324 211 1346 346 c 258
 1360 435 l 258
 1380 565 1403 654 1535 654 c 256
 1667 654 1663 565 1642 433 c 258
 1629 346 l 258
 1607 211 1576 111 1449 111 c 256
1429 -19 m 256
 1659 -19 1758 131 1794 360 c 258
 1802 414 l 258
 1837 647 1786 784 1556 784 c 256
 1325 784 1233 646 1196 413 c 258
 1188 360 l 258
 1152 132 1199 -19 1429 -19 c 256
2203 111 m 256
 2075 111 2078 211 2100 346 c 258
 2114 435 l 258
 2134 565 2157 654 2289 654 c 256
 2421 654 2417 565 2396 433 c 258
 2383 346 l 258
 2361 211 2330 111 2203 111 c 256
2183 -19 m 256
 2413 -19 2512 131 2548 360 c 258
 2556 414 l 258
 2591 647 2540 784 2310 784 c 256
 2079 784 1987 646 1950 413 c 258
 1942 360 l 258
 1906 132 1953 -19 2183 -19 c 256
512 0 m 257
 690 0 l 257
 1457 1446 l 257
 1284 1446 l 257
 512 0 l 257
EndSplineSet
EndChar

StartChar: pi
Encoding: 422 960 375
Width: 1257
VWidth: 0
Flags: W
PickledData: "(dp1
S'org.robofab.postScriptHintData'
p2
(dp3
s."
LayerCount: 2
Fore
SplineSet
79 801 m 257
 145 845 187 881 296 891 c 257
 155 0 l 257
 407 0 l 257
 548 893 l 257
 813 893 l 257
 719 297 l 258
 677 32 789 -23 1023 -20 c 257
 1096 156 l 257
 972 181 953 184 978 343 c 258
 1065 893 l 257
 1247 893 l 257
 1276 1074 l 257
 324 1074 l 258
 221 1074 155 1032 109 986 c 257
 79 801 l 257
EndSplineSet
EndChar

StartChar: plus
Encoding: 12 43 376
Width: 966
VWidth: 0
Flags: W
PickledData: "(dp1
S'org.robofab.postScriptHintData'
p2
(dp3
s."
LayerCount: 2
Fore
SplineSet
337 156 m 257
 501 156 l 257
 553 487 l 257
 822 487 l 257
 848 649 l 257
 579 649 l 257
 629 968 l 257
 465 968 l 257
 415 649 l 257
 146 649 l 257
 120 487 l 257
 389 487 l 257
 337 156 l 257
EndSplineSet
EndChar

StartChar: plusminus
Encoding: 114 177 377
Width: 1024
VWidth: 0
Flags: W
PickledData: "(dp1
S'org.robofab.postScriptHintData'
p2
(dp3
s."
LayerCount: 2
Fore
SplineSet
400 326 m 257
 566 326 l 257
 608 591 l 257
 866 591 l 257
 892 755 l 257
 634 755 l 257
 676 1018 l 257
 510 1018 l 257
 468 755 l 257
 210 755 l 257
 184 591 l 257
 442 591 l 257
 400 326 l 257
90 0 m 257
 772 0 l 257
 799 165 l 257
 117 165 l 257
 90 0 l 257
EndSplineSet
EndChar

StartChar: product
Encoding: 475 8719 378
Width: 1776
VWidth: 0
Flags: W
PickledData: "(dp1
S'org.robofab.postScriptHintData'
p2
(dp3
s."
LayerCount: 2
Fore
SplineSet
588 319 m 257
 719 319 l 257
 772 652 l 257
 950 652 l 258
 1170 652 1243 760 1264 894 c 257
 1267 908 l 257
 1290 1082 1199 1153 1042 1153 c 258
 720 1153 l 257
 588 319 l 257
786 742 m 257
 837 1062 l 257
 1032 1062 l 258
 1150 1062 1143 960 1134 901 c 258
 1130 877 l 258
 1119 814 1086 742 972 742 c 258
 786 742 l 257
789 82 m 256
 425 82 203 357 261 722 c 256
 319 1086 627 1361 991 1361 c 256
 1357 1361 1576 1086 1518 722 c 256
 1460 357 1155 82 789 82 c 256
772 -14 m 256
 1188 -14 1558 303 1624 722 c 256
 1690 1139 1420 1456 1004 1456 c 256
 591 1456 218 1139 152 722 c 256
 86 303 359 -14 772 -14 c 256
EndSplineSet
EndChar

StartChar: q
Encoding: 82 113 379
Width: 1210
VWidth: 0
Flags: W
PickledData: "(dp1
S'org.robofab.postScriptHintData'
p2
(dp3
s."
LayerCount: 2
Fore
SplineSet
651 -410 m 257
 923 -410 l 257
 1158 1074 l 257
 955 1074 l 257
 925 1005 l 257
 872 1056 774 1097 662 1097 c 256
 401 1097 222 960 188 750 c 258
 120 317 l 258
 91 136 177 -23 479 -23 c 256
 561 -23 650 -4 721 33 c 257
 651 -410 l 257
560 166 m 256
 439 166 373 200 390 308 c 258
 461 756 l 258
 479 865 561 907 677 907 c 256
 774 907 830 878 848 839 c 257
 750 220 l 257
 746 213 674 166 560 166 c 256
EndSplineSet
EndChar

StartChar: question
Encoding: 32 63 380
Width: 1244
VWidth: 0
Flags: W
PickledData: "(dp1
S'org.robofab.postScriptHintData'
p2
(dp3
s."
LayerCount: 2
Fore
SplineSet
394 431 m 257
 623 431 l 257
 829 582 l 258
 1035 733 1136 862 1168 1067 c 256
 1203 1289 1166 1501 738 1501 c 256
 305 1501 218 1309 175 1036 c 258
 163 962 l 257
 437 962 l 257
 451 1047 l 258
 473 1188 501 1279 703 1279 c 256
 889 1279 892 1166 874 1056 c 256
 855 936 806 860 691 740 c 258
 394 431 l 257
310 0 m 257
 559 0 l 257
 598 245 l 257
 349 245 l 257
 310 0 l 257
EndSplineSet
EndChar

StartChar: quotedbl
Encoding: 3 34 382
Width: 1024
VWidth: 0
Flags: W
PickledData: "(dp1
S'org.robofab.postScriptHintData'
p2
(dp3
s."
LayerCount: 2
Fore
SplineSet
226 872 m 257
 345 872 l 257
 502 1516 l 257
 249 1516 l 257
 226 872 l 257
579 872 m 257
 698 872 l 257
 877 1516 l 257
 623 1516 l 257
 579 872 l 257
EndSplineSet
EndChar

StartChar: quotedblbase
Encoding: 457 8222 383
Width: 1373
VWidth: 0
Flags: W
PickledData: "(dp1
S'org.robofab.postScriptHintData'
p2
(dp3
s."
LayerCount: 2
Fore
SplineSet
868 -389 m 257
 939 -333 1103 -148 1134 53 c 258
 1170 276 l 257
 848 276 l 257
 804 0 l 257
 969 0 l 257
 947 -138 829 -285 769 -343 c 257
 868 -389 l 257
369 -389 m 257
 440 -333 604 -148 635 53 c 258
 671 276 l 257
 349 276 l 257
 305 0 l 257
 470 0 l 257
 448 -138 330 -285 270 -343 c 257
 369 -389 l 257
EndSplineSet
EndChar

StartChar: quotedblleft
Encoding: 455 8220 384
Width: 1310
VWidth: 0
Flags: W
PickledData: "(dp1
S'org.robofab.postScriptHintData'
p2
(dp3
s."
LayerCount: 2
Fore
SplineSet
505 1515 m 257
 434 1459 270 1274 239 1073 c 258
 203 850 l 257
 525 850 l 257
 569 1126 l 257
 404 1126 l 257
 426 1264 544 1411 604 1469 c 257
 505 1515 l 257
981 1515 m 257
 910 1459 746 1274 715 1073 c 258
 679 850 l 257
 1001 850 l 257
 1045 1126 l 257
 880 1126 l 257
 902 1264 1020 1411 1080 1469 c 257
 981 1515 l 257
EndSplineSet
EndChar

StartChar: quotedblright
Encoding: 456 8221 385
Width: 1350
VWidth: 0
Flags: W
PickledData: "(dp1
S'org.robofab.postScriptHintData'
p2
(dp3
s."
LayerCount: 2
Fore
SplineSet
369 851 m 257
 440 907 604 1092 635 1293 c 258
 671 1516 l 257
 349 1516 l 257
 305 1240 l 257
 470 1240 l 257
 448 1102 330 955 270 897 c 257
 369 851 l 257
845 851 m 257
 916 907 1080 1092 1111 1293 c 258
 1147 1516 l 257
 825 1516 l 257
 781 1240 l 257
 946 1240 l 257
 924 1102 806 955 746 897 c 257
 845 851 l 257
EndSplineSet
EndChar

StartChar: quoteleft
Encoding: 452 8216 386
Width: 874
VWidth: 0
Flags: W
PickledData: "(dp1
S'org.robofab.postScriptHintData'
p2
(dp3
s."
LayerCount: 2
Fore
SplineSet
545 1503 m 257
 474 1447 310 1262 279 1061 c 258
 243 838 l 257
 565 838 l 257
 609 1114 l 257
 444 1114 l 257
 466 1252 584 1399 644 1457 c 257
 545 1503 l 257
EndSplineSet
EndChar

StartChar: quoteright
Encoding: 453 8217 387
Width: 834
VWidth: 0
Flags: W
PickledData: "(dp1
S'org.robofab.postScriptHintData'
p2
(dp3
s."
LayerCount: 2
Fore
SplineSet
329 839 m 257
 400 895 564 1080 595 1281 c 258
 631 1504 l 257
 309 1504 l 257
 265 1228 l 257
 430 1228 l 257
 408 1090 290 943 230 885 c 257
 329 839 l 257
EndSplineSet
EndChar

StartChar: quotesinglbase
Encoding: 454 8218 388
Width: 874
VWidth: 0
Flags: W
PickledData: "(dp1
S'org.robofab.postScriptHintData'
p2
(dp3
s."
LayerCount: 2
Fore
SplineSet
369 -389 m 257
 440 -333 604 -148 635 53 c 258
 671 276 l 257
 349 276 l 257
 305 0 l 257
 470 0 l 257
 448 -138 330 -285 270 -343 c 257
 369 -389 l 257
EndSplineSet
EndChar

StartChar: quotesingle
Encoding: 8 39 389
Width: 769
VWidth: 0
Flags: W
PickledData: "(dp1
S'org.robofab.postScriptHintData'
p2
(dp3
s."
LayerCount: 2
Fore
SplineSet
286 872 m 257
 405 872 l 257
 562 1516 l 257
 309 1516 l 257
 286 872 l 257
EndSplineSet
EndChar

StartChar: r
Encoding: 83 114 390
Width: 855
VWidth: 0
Flags: W
PickledData: "(dp1
S'org.robofab.postScriptHintData'
p2
(dp3
s."
AnchorPoint: "bot" 215 0 basechar 0
AnchorPoint: "top" 626 1074 basechar 0
LayerCount: 2
Fore
SplineSet
74 0 m 257
 346 0 l 257
 460 720 l 257
 494 806 716 852 855 859 c 257
 897 1090 l 257
 809 1100 562 1045 495 946 c 257
 516 1074 l 257
 244 1074 l 257
 74 0 l 257
EndSplineSet
EndChar

StartChar: radical
Encoding: 480 8730 392
Width: 1298
VWidth: 0
Flags: W
PickledData: "(dp1
S'org.robofab.postScriptHintData'
p2
(dp3
s."
LayerCount: 2
Fore
SplineSet
-40 512 m 257
 79 512 l 257
 308 0 l 257
 555 0 l 257
 1386 1506 l 257
 1191 1506 l 257
 471 229 l 257
 318 623 l 257
 -23 623 l 257
 -40 512 l 257
EndSplineSet
EndChar

StartChar: registered
Encoding: 111 174 396
Width: 1776
VWidth: 0
Flags: W
PickledData: "(dp1
S'org.robofab.postScriptHintData'
p2
(dp3
s."
LayerCount: 2
Fore
SplineSet
528 319 m 257
 659 319 l 257
 712 652 l 257
 971 652 l 257
 1098 319 l 257
 1226 319 l 257
 1097 666 l 257
 1193 691 1264 760 1285 894 c 257
 1288 908 l 257
 1311 1082 1220 1153 1063 1153 c 258
 660 1153 l 257
 528 319 l 257
726 742 m 257
 777 1062 l 257
 1053 1062 l 258
 1171 1062 1164 960 1155 901 c 258
 1151 877 l 258
 1140 814 1107 742 993 742 c 258
 726 742 l 257
789 82 m 256
 425 82 203 357 261 722 c 256
 319 1086 627 1361 991 1361 c 256
 1357 1361 1576 1086 1518 722 c 256
 1460 357 1155 82 789 82 c 256
772 -14 m 256
 1188 -14 1558 303 1624 722 c 256
 1690 1139 1420 1456 1004 1456 c 256
 591 1456 218 1139 152 722 c 256
 86 303 359 -14 772 -14 c 256
EndSplineSet
EndChar

StartChar: ring
Encoding: 408 730 397
Width: 592
VWidth: 0
Flags: W
PickledData: "(dp1
S'org.robofab.postScriptHintData'
p2
(dp3
s."
AnchorPoint: "top" 246 1074 mark 0
LayerCount: 2
Fore
SplineSet
277 1271 m 256
 209 1271 163 1298 178 1395 c 256
 193 1491 248 1518 315 1518 c 256
 383 1518 429 1490 414 1393 c 256
 399 1297 344 1271 277 1271 c 256
262 1181 m 256
 405 1181 505 1258 526 1394 c 256
 548 1530 472 1606 330 1606 c 256
 187 1606 88 1530 66 1394 c 256
 45 1258 119 1181 262 1181 c 256
EndSplineSet
EndChar

StartChar: s
Encoding: 84 115 399
Width: 1048
VWidth: 0
Flags: W
PickledData: "(dp1
S'org.robofab.postScriptHintData'
p2
(dp3
sS'com.typemytype.robofont.layerData'
p4
(dp5
s."
AnchorPoint: "bot" 449 0 basechar 0
AnchorPoint: "top" 659 1074 basechar 0
LayerCount: 2
Fore
SplineSet
456 -20 m 256
 678 -20 866 71 903 303 c 256
 930 471 884 569 712 626 c 258
 501 696 l 258
 454 711 435 744 442 792 c 256
 453 861 488 907 612 907 c 256
 714 907 842 870 900 837 c 257
 990 1006 l 257
 891 1060 754 1094 621 1094 c 256
 415 1094 219 1013 183 796 c 256
 157 652 196 542 356 489 c 258
 581 415 l 258
 646 393 662 354 655 307 c 256
 646 252 614 166 486 166 c 256
 380 166 252 197 145 246 c 257
 61 61 l 257
 189 11 328 -20 456 -20 c 256
EndSplineSet
EndChar

StartChar: section
Encoding: 104 167 406
Width: 1085
VWidth: 0
Flags: W
PickledData: "(dp1
S'org.robofab.postScriptHintData'
p2
(dp3
s."
LayerCount: 2
Fore
SplineSet
25 112 m 257
 110 32 254 -22 436 -22 c 256
 693 -22 844 123 872 304 c 256
 888 403 868 457 820 505 c 257
 898 568 948 642 960 716 c 256
 975 814 923 911 787 981 c 258
 545 1104 l 258
 497 1129 469 1151 478 1206 c 256
 489 1273 554 1308 641 1308 c 256
 722 1308 822 1279 916 1218 c 257
 1025 1377 l 257
 964 1431 833 1497 649 1497 c 256
 420 1497 255 1403 222 1192 c 256
 208 1104 230 1048 283 999 c 257
 208 949 154 872 142 792 c 256
 127 700 167 604 294 537 c 258
 535 411 l 258
 607 373 626 339 617 286 c 256
 607 220 535 176 435 176 c 256
 351 176 248 207 146 281 c 257
 25 112 l 257
713 579 m 257
 402 733 l 258
 342 762 326 797 336 852 c 256
 342 886 374 930 392 941 c 257
 670 797 l 257
 754 758 755 705 746 652 c 256
 743 628 731 601 713 579 c 257
EndSplineSet
EndChar

StartChar: seven
Encoding: 24 55 408
Width: 1379
VWidth: 0
Flags: W
PickledData: "(dp1
S'org.robofab.postScriptHintData'
p2
(dp3
s."
LayerCount: 2
Fore
SplineSet
237 0 m 257
 551 0 l 257
 1306 1270 l 257
 1339 1476 l 257
 341 1476 l 257
 304 1244 l 257
 978 1244 l 257
 237 0 l 257
EndSplineSet
EndChar

StartChar: six
Encoding: 23 54 409
Width: 1379
VWidth: 0
Flags: W
PickledData: "(dp1
S'org.robofab.postScriptHintData'
p2
(dp3
s."
LayerCount: 2
Fore
SplineSet
592 -20 m 256
 924 -20 1162 158 1207 446 c 256
 1264 804 1113 930 799 930 c 256
 769 930 677 915 639 904 c 257
 1052 1477 l 257
 732 1477 l 257
 360 965 l 257
 259 816 176 650 145 459 c 256
 98 163 271 -20 592 -20 c 256
641 199 m 256
 486 199 404 299 429 458 c 256
 456 629 546 726 721 726 c 256
 913 726 962 623 936 460 c 256
 911 300 797 199 641 199 c 256
EndSplineSet
EndChar

StartChar: slash
Encoding: 16 47 410
Width: 1024
VWidth: 0
Flags: W
PickledData: "(dp1
S'org.robofab.postScriptHintData'
p2
(dp3
s."
LayerCount: 2
Fore
SplineSet
-14 0 m 257
 229 0 l 257
 1038 1516 l 257
 795 1516 l 257
 -14 0 l 257
EndSplineSet
EndChar

StartChar: sterling
Encoding: 100 163 412
Width: 1285
VWidth: 0
Flags: W
PickledData: "(dp1
S'org.robofab.postScriptHintData'
p2
(dp3
s."
LayerCount: 2
Fore
SplineSet
86 0 m 257
 1004 0 l 257
 1040 226 l 257
 432 226 l 257
 528 621 l 257
 1021 621 l 257
 1052 812 l 257
 576 812 l 257
 631 1044 l 258
 663 1180 722 1281 878 1281 c 256
 949 1281 1033 1261 1131 1214 c 257
 1234 1415 l 257
 1164 1467 1034 1515 891 1515 c 256
 560 1515 400 1344 339 1061 c 257
 280 812 l 257
 143 812 l 257
 112 621 l 257
 234 621 l 257
 86 0 l 257
EndSplineSet
EndChar

StartChar: summation
Encoding: 476 8721 413
Width: 1196
VWidth: 0
Flags: W
PickledData: "(dp1
S'org.robofab.postScriptHintData'
p2
(dp3
s."
LayerCount: 2
Fore
SplineSet
966 0 m 257
 1003 232 l 257
 376 232 l 257
 900 718 l 257
 916 817 l 257
 548 1246 l 257
 1163 1246 l 257
 1200 1476 l 257
 246 1476 l 257
 209 1243 l 257
 599 762 l 257
 49 235 l 257
 12 0 l 257
 966 0 l 257
EndSplineSet
EndChar

StartChar: t
Encoding: 85 116 414
Width: 860
VWidth: 0
Flags: W
PickledData: "(dp1
S'org.robofab.postScriptHintData'
p2
(dp3
s."
AnchorPoint: "mid" 365 620 basechar 0
AnchorPoint: "bot" 363 24 basechar 0
AnchorPoint: "caron.alt" 461 1074 basechar 0
AnchorPoint: "top" 510 1408 basechar 0
LayerCount: 2
Fore
SplineSet
534 -12 m 258
 631 -12 l 257
 673 190 l 257
 611 190 l 258
 431 190 417 227 438 360 c 258
 523 901 l 257
 778 901 l 257
 806 1074 l 257
 551 1074 l 257
 605 1419 l 257
 366 1419 l 257
 287 1074 l 257
 109 1074 l 257
 81 901 l 257
 251 901 l 257
 163 341 l 258
 119 65 210 -12 534 -12 c 258
EndSplineSet
EndChar

StartChar: thorn
Encoding: 191 254 419
Width: 1212
VWidth: 0
Flags: W
PickledData: "(dp1
S'org.robofab.postScriptHintData'
p2
(dp3
s."
LayerCount: 2
Fore
SplineSet
5 -410 m 257
 278 -410 l 257
 346 17 l 257
 395 -6 460 -24 545 -24 c 256
 848 -24 1015 142 1044 326 c 258
 1111 751 l 258
 1144 957 1014 1095 754 1095 c 256
 663 1095 576 1071 507 1036 c 257
 584 1516 l 257
 311 1516 l 257
 5 -410 l 257
553 165 m 256
 448 165 391 205 377 213 c 257
 477 841 l 257
 514 872 591 906 679 906 c 256
 792 906 856 862 839 755 c 258
 770 320 l 258
 753 211 676 165 553 165 c 256
EndSplineSet
EndChar

StartChar: three
Encoding: 20 51 420
Width: 1379
VWidth: 0
Flags: W
PickledData: "(dp1
S'org.robofab.postScriptHintData'
p2
(dp3
s."
LayerCount: 2
Fore
SplineSet
585 -20 m 256
 913 -20 1121 139 1167 426 c 256
 1196 611 1132 737 988 780 c 257
 1136 811 1233 926 1260 1101 c 256
 1301 1355 1146 1496 827 1496 c 256
 517 1496 317 1331 268 1033 c 257
 547 1033 l 257
 570 1187 659 1272 796 1272 c 256
 928 1272 990 1206 971 1087 c 256
 950 952 878 877 659 877 c 257
 627 678 l 257
 851 678 900 593 876 439 c 256
 850 276 761 201 623 201 c 256
 477 201 424 285 446 436 c 257
 167 436 l 257
 128 143 267 -20 585 -20 c 256
EndSplineSet
Substitution2: "'sups' Superscript lookup 10 subtable" uni00B3
EndChar

StartChar: threequarters
Encoding: 127 190 421
Width: 2882
VWidth: 0
Flags: W
PickledData: "(dp1
S'org.robofab.postScriptHintData'
p2
(dp3
s."
LayerCount: 2
Fore
SplineSet
563 437 m 256
 839 437 940 582 966 744 c 256
 985 863 963 956 841 990 c 257
 980 1018 1016 1120 1032 1219 c 256
 1059 1392 962 1496 737 1496 c 256
 508 1496 356 1423 313 1156 c 257
 498 1156 l 257
 521 1310 562 1344 705 1344 c 256
 829 1344 859 1297 845 1209 c 256
 829 1106 816 1059 611 1059 c 257
 588 917 l 257
 772 917 798 873 779 753 c 256
 763 651 728 591 600 591 c 256
 463 591 410 612 433 773 c 257
 248 773 l 257
 216 537 294 437 563 437 c 256
1899 0 m 257
 2058 0 l 257
 2091 210 l 257
 2259 210 l 257
 2285 373 l 257
 2117 373 l 257
 2155 615 l 257
 1996 615 l 257
 1958 373 l 257
 1659 373 l 257
 2039 1074 l 257
 1848 1074 l 257
 1456 369 l 257
 1431 210 l 257
 1932 210 l 257
 1899 0 l 257
770 0 m 257
 944 0 l 257
 1823 1505 l 257
 1649 1505 l 257
 770 0 l 257
EndSplineSet
Ligature2: "'frac' Diagonal Fractions lookup 11 subtable" three slash four
EndChar

StartChar: uni00B3
Encoding: 116 179 422
Width: 927
VWidth: 0
Flags: W
PickledData: "(dp1
S'org.robofab.postScriptHintData'
p2
(dp3
s."
LayerCount: 2
Fore
SplineSet
391 608 m 256
 595 607 741 688 770 874 c 256
 789 997 752 1073 638 1104 c 257
 757 1126 817 1223 830 1334 c 256
 850 1513 725 1582 543 1582 c 256
 335 1582 208 1485 174 1276 c 257
 363 1276 l 257
 380 1386 416 1432 519 1432 c 256
 625 1432 643 1378 632 1310 c 256
 617 1212 576 1174 401 1174 c 257
 378 1034 l 257
 553 1034 589 994 571 879 c 256
 558 798 509 760 413 760 c 256
 313 760 287 807 302 918 c 257
 112 918 l 257
 82 708 189 609 391 608 c 256
EndSplineSet
EndChar

StartChar: tilde
Encoding: 410 732 423
Width: 759
VWidth: 0
Flags: W
PickledData: "(dp1
S'org.robofab.postScriptHintData'
p2
(dp3
s."
AnchorPoint: "top" 339 1074 mark 0
LayerCount: 2
Fore
SplineSet
247 1231 m 256
 400 1231 456 1334 510 1334 c 256
 543 1334 562 1308 553 1247 c 257
 671 1247 l 257
 700 1434 632 1507 512 1507 c 256
 358 1507 306 1405 256 1405 c 256
 221 1405 196 1428 206 1491 c 257
 88 1491 l 257
 59 1304 127 1231 247 1231 c 256
EndSplineSet
EndChar

StartChar: trademark
Encoding: 469 8482 424
Width: 1843
VWidth: 0
Flags: W
PickledData: "(dp1
S'org.robofab.postScriptHintData'
p2
(dp3
s."
LayerCount: 2
Fore
SplineSet
771 766 m 257
 936 766 l 257
 1011 1239 l 257
 1121 931 l 257
 1282 931 l 257
 1483 1239 l 257
 1408 766 l 257
 1575 766 l 257
 1683 1446 l 257
 1467 1446 l 257
 1227 1103 l 257
 1097 1446 l 257
 879 1446 l 257
 771 766 l 257
261 766 m 257
 456 766 l 257
 541 1302 l 257
 723 1302 l 257
 746 1446 l 257
 187 1446 l 257
 164 1302 l 257
 346 1302 l 257
 261 766 l 257
EndSplineSet
EndChar

StartChar: two
Encoding: 19 50 425
Width: 1379
VWidth: 0
Flags: W
PickledData: "(dp1
S'org.robofab.postScriptHintData'
p2
(dp3
s."
LayerCount: 2
Fore
SplineSet
159 0 m 257
 1047 0 l 257
 1084 235 l 257
 523 235 l 257
 877 526 l 258
 1088 700 1194 843 1228 1060 c 256
 1268 1313 1155 1496 827 1496 c 256
 436 1496 295 1337 241 992 c 257
 541 992 l 257
 574 1200 641 1267 799 1267 c 256
 906 1267 963 1195 941 1058 c 256
 924 947 880 864 736 737 c 258
 158 226 l 257
 159 0 l 257
EndSplineSet
Substitution2: "'sups' Superscript lookup 10 subtable" uni00B2
EndChar

StartChar: uni00B2
Encoding: 115 178 426
Width: 1005
VWidth: 0
Flags: W
PickledData: "(dp1
S'org.robofab.postScriptHintData'
p2
(dp3
s."
LayerCount: 2
Fore
SplineSet
113 624 m 257
 752 624 l 257
 776 773 l 257
 348 773 l 257
 622 971 l 258
 775 1081 855 1163 875 1295 c 256
 901 1455 822 1582 573 1582 c 256
 311 1582 195 1487 158 1256 c 257
 359 1256 l 257
 382 1397 434 1435 558 1435 c 256
 667 1435 700 1384 685 1294 c 256
 674 1221 640 1177 522 1087 c 258
 113 772 l 257
 113 624 l 257
EndSplineSet
EndChar

StartChar: u
Encoding: 86 117 427
Width: 1269
VWidth: 0
Flags: W
PickledData: "(dp1
S'org.robofab.postScriptHintData'
p2
(dp3
s."
AnchorPoint: "ogonek" 887 0 basechar 0
AnchorPoint: "top" 730 1074 basechar 0
LayerCount: 2
Fore
SplineSet
408 -23 m 256
 556 -30 715 29 773 118 c 257
 762 0 l 257
 1018 0 l 257
 1188 1074 l 257
 916 1074 l 257
 801 350 l 258
 782 230 661 182 562 182 c 256
 478 182 386 223 404 335 c 258
 521 1074 l 257
 249 1074 l 257
 125 291 l 258
 96 110 204 -13 408 -23 c 256
EndSplineSet
EndChar

StartChar: underscore
Encoding: 64 95 438
Width: 904
VWidth: 0
Flags: W
PickledData: "(dp1
S'org.robofab.postScriptHintData'
p2
(dp3
s."
LayerCount: 2
Fore
SplineSet
-6 -32 m 257
 877 -32 l 257
 905 143 l 257
 22 143 l 257
 -6 -32 l 257
EndSplineSet
EndChar

StartChar: uni0307
Encoding: 412 775 452
Width: 600
VWidth: 0
Flags: W
PickledData: "(dp1
S'org.robofab.postScriptHintData'
p2
(dp3
s."
AnchorPoint: "top" 234 1060 mark 0
LayerCount: 2
Fore
SplineSet
170 1327 m 257
 363 1327 l 257
 395 1535 l 257
 202 1535 l 257
 170 1327 l 257
EndSplineSet
EndChar

StartChar: uni030F
Encoding: 413 783 453
Width: 1024
VWidth: 0
Flags: W
PickledData: "(dp1
S'org.robofab.postScriptHintData'
p2
(dp3
s."
AnchorPoint: "top" 596 1074 mark 0
LayerCount: 2
Fore
SplineSet
720 1157 m 257
 869 1157 l 257
 813 1522 l 257
 545 1522 l 257
 720 1157 l 257
310 1157 m 257
 459 1157 l 257
 403 1522 l 257
 135 1522 l 257
 310 1157 l 257
EndSplineSet
EndChar

StartChar: uni0311
Encoding: 414 785 454
Width: 575
VWidth: 0
Flags: W
PickledData: "(dp1
S'org.robofab.postScriptHintData'
p2
(dp3
s."
AnchorPoint: "top" 258 1074 mark 0
LayerCount: 2
Fore
SplineSet
13 1217 m 257
 157 1217 l 257
 170 1293 229 1317 285 1317 c 256
 341 1317 394 1293 381 1217 c 257
 525 1217 l 257
 557 1417 439 1476 311 1476 c 256
 183 1476 45 1417 13 1217 c 257
EndSplineSet
EndChar

StartChar: uni0358
Encoding: 417 856 457
Width: 600
VWidth: 0
Flags: W
PickledData: "(dp1
S'org.robofab.postScriptHintData'
p2
(dp3
s."
AnchorPoint: "top" 247 1060 mark 0
LayerCount: 2
Fore
SplineSet
183 1327 m 257
 376 1327 l 257
 408 1535 l 257
 215 1535 l 257
 183 1327 l 257
EndSplineSet
EndChar

StartChar: v
Encoding: 87 118 462
Width: 1171
VWidth: 0
Flags: W
PickledData: "(dp1
S'org.robofab.postScriptHintData'
p2
(dp3
s."
LayerCount: 2
Fore
SplineSet
365 0 m 257
 654 0 l 257
 1188 1074 l 257
 931 1074 l 257
 552 266 l 257
 424 1074 l 257
 153 1074 l 257
 365 0 l 257
EndSplineSet
EndChar

StartChar: w
Encoding: 88 119 463
Width: 1692
VWidth: 0
Flags: W
PickledData: "(dp1
S'org.robofab.postScriptHintData'
p2
(dp3
s."
AnchorPoint: "top" 941 1074 basechar 0
LayerCount: 2
Fore
SplineSet
280 0 m 257
 538 0 l 257
 884 741 l 257
 987 0 l 257
 1253 0 l 257
 1709 1074 l 257
 1456 1074 l 257
 1154 295 l 257
 1045 1074 l 257
 824 1074 l 257
 477 304 l 257
 407 1074 l 257
 153 1074 l 257
 280 0 l 257
EndSplineSet
EndChar

StartChar: x
Encoding: 89 120 468
Width: 1118
VWidth: 0
Flags: W
PickledData: "(dp1
S'org.robofab.postScriptHintData'
p2
(dp3
s."
LayerCount: 2
Fore
SplineSet
-31 0 m 257
 258 0 l 257
 535 338 l 257
 708 0 l 257
 979 0 l 257
 702 536 l 257
 1147 1074 l 257
 870 1074 l 257
 594 738 l 257
 424 1074 l 257
 140 1074 l 257
 424 540 l 257
 -31 0 l 257
EndSplineSet
EndChar

StartChar: y
Encoding: 90 121 469
Width: 1120
VWidth: 0
Flags: W
PickledData: "(dp1
S'org.robofab.postScriptHintData'
p2
(dp3
s."
AnchorPoint: "top" 701 1074 basechar 0
LayerCount: 2
Fore
SplineSet
47 -465 m 257
 392 -435 481 -355 732 140 c 258
 1206 1074 l 257
 936 1074 l 257
 599 353 l 257
 434 1074 l 257
 172 1074 l 257
 411 36 l 257
 312 -198 259 -239 60 -260 c 257
 47 -465 l 257
EndSplineSet
EndChar

StartChar: yen
Encoding: 102 165 473
Width: 1304
VWidth: 0
Flags: W
PickledData: "(dp1
S'org.robofab.postScriptHintData'
p2
(dp3
s."
LayerCount: 2
Fore
SplineSet
988 533 m 257
 1009 667 l 257
 267 667 l 257
 246 533 l 257
 988 533 l 257
940 231 m 257
 961 365 l 257
 219 365 l 257
 198 231 l 257
 940 231 l 257
EndSplineSet
Refer: 159 89 N 1 0 0 1 0 0 2
EndChar

StartChar: z
Encoding: 91 122 477
Width: 995
VWidth: 0
Flags: W
PickledData: "(dp1
S'org.robofab.postScriptHintData'
p2
(dp3
s."
AnchorPoint: "bot" 408 0 basechar 0
AnchorPoint: "top" 614 1074 basechar 0
LayerCount: 2
Fore
SplineSet
36 0 m 257
 795 0 l 257
 825 190 l 257
 361 190 l 257
 929 910 l 257
 955 1074 l 257
 209 1074 l 257
 180 888 l 257
 627 888 l 257
 62 167 l 257
 36 0 l 257
EndSplineSet
EndChar

StartChar: zero
Encoding: 17 48 481
Width: 1420
VWidth: 0
Flags: W
PickledData: "(dp1
S'org.robofab.postScriptHintData'
p2
(dp3
s."
LayerCount: 2
Fore
SplineSet
635 205 m 256
 424 205 392 371 412 500 c 258
 487 972 l 258
 508 1102 583 1270 803 1270 c 256
 1021 1270 1040 1102 1019 972 c 258
 944 500 l 258
 924 371 847 205 635 205 c 256
599 -20 m 256
 991 -20 1192 245 1234 509 c 258
 1305 960 l 258
 1348 1232 1239 1496 839 1496 c 256
 432 1496 229 1236 186 964 c 258
 113 505 l 258
 71 238 198 -20 599 -20 c 256
EndSplineSet
EndChar

StartChar: uni00AD
Encoding: 110 173 483
Width: 968
VWidth: 0
Flags: HW
AnchorPoint: "mid" 476 569 mark 0
LayerCount: 2
Fore
SplineSet
120 494 m 257
 824 494 l 257
 848 642 l 257
 144 642 l 257
 120 494 l 257
EndSplineSet
EndChar

StartChar: uni02C9
Encoding: 405 713 490
Width: 511
VWidth: 0
Flags: HW
AnchorPoint: "mid" 258 1329 mark 0
AnchorPoint: "top" 217 1074 mark 0
LayerCount: 2
Fore
SplineSet
-59 1251 m 257
 545 1251 l 257
 569 1408 l 257
 -35 1408 l 257
 -59 1251 l 257
EndSplineSet
EndChar

StartChar: uni2015
Encoding: 451 8213 492
Width: 1624
VWidth: 0
Flags: HW
LayerCount: 2
Fore
SplineSet
66 1132 m 261
 1522 1132 l 261
 1539 1236 l 261
 83 1236 l 261
 66 1132 l 261
EndSplineSet
EndChar

